<mxfile host="app.diagrams.net" agent="Mozilla/5.0 (Macintosh; Intel Mac OS X 10_15_7) AppleWebKit/537.36 (KHTML, like Gecko) Chrome/138.0.0.0 Safari/537.36" version="27.2.0">
  <diagram name="Page-1" id="1u7aPUxd08my88hd9c1D">
    <mxGraphModel dx="1763" dy="1129" grid="0" gridSize="10" guides="1" tooltips="1" connect="1" arrows="1" fold="1" page="0" pageScale="1" pageWidth="850" pageHeight="1100" math="0" shadow="0">
      <root>
        <mxCell id="0" />
        <mxCell id="1" parent="0" />
        <mxCell id="zyd1Yfs6hA4rVxVYhihG-56" value="" style="rounded=1;whiteSpace=wrap;html=1;fillColor=#dae8fc;strokeColor=#6c8ebf;" vertex="1" parent="1">
          <mxGeometry x="377" y="769" width="571.75" height="158" as="geometry" />
        </mxCell>
        <mxCell id="zyd1Yfs6hA4rVxVYhihG-55" value="" style="rounded=1;whiteSpace=wrap;html=1;fillColor=#dae8fc;strokeColor=#6c8ebf;" vertex="1" parent="1">
          <mxGeometry x="377" y="504" width="564" height="254" as="geometry" />
        </mxCell>
        <mxCell id="zyd1Yfs6hA4rVxVYhihG-53" value="" style="rounded=1;whiteSpace=wrap;html=1;fillColor=#dae8fc;strokeColor=#6c8ebf;" vertex="1" parent="1">
          <mxGeometry x="380" y="239" width="564" height="254" as="geometry" />
        </mxCell>
        <mxCell id="zyd1Yfs6hA4rVxVYhihG-42" value="" style="rounded=1;whiteSpace=wrap;html=1;strokeWidth=2;" vertex="1" parent="1">
          <mxGeometry x="12" y="252" width="234" height="652" as="geometry" />
        </mxCell>
        <mxCell id="zyd1Yfs6hA4rVxVYhihG-24" value="" style="rounded=1;whiteSpace=wrap;html=1;strokeWidth=2;" vertex="1" parent="1">
          <mxGeometry x="531.5" y="814" width="81" height="81" as="geometry" />
        </mxCell>
        <mxCell id="zyd1Yfs6hA4rVxVYhihG-21" value="" style="whiteSpace=wrap;html=1;shape=mxgraph.basic.rectCallout;dx=83;dy=14;boundedLbl=1;strokeWidth=2;fillColor=#00CC00;strokeColor=#2D7600;fontColor=#ffffff;" vertex="1" parent="1">
          <mxGeometry x="106.75" y="832" width="101" height="60" as="geometry" />
        </mxCell>
        <mxCell id="zyd1Yfs6hA4rVxVYhihG-46" style="edgeStyle=orthogonalEdgeStyle;rounded=0;orthogonalLoop=1;jettySize=auto;html=1;exitX=0;exitY=0;exitDx=100;exitDy=22.5;exitPerimeter=0;entryX=0;entryY=0.5;entryDx=0;entryDy=0;strokeWidth=2;" edge="1" parent="1" source="zyd1Yfs6hA4rVxVYhihG-19" target="zyd1Yfs6hA4rVxVYhihG-10">
          <mxGeometry relative="1" as="geometry" />
        </mxCell>
        <mxCell id="zyd1Yfs6hA4rVxVYhihG-19" value="" style="whiteSpace=wrap;html=1;shape=mxgraph.basic.rectCallout;dx=30;dy=15;boundedLbl=1;strokeWidth=2;fillColor=#f5f5f5;fontColor=#333333;strokeColor=#666666;" vertex="1" parent="1">
          <mxGeometry x="41" y="277" width="100" height="60" as="geometry" />
        </mxCell>
        <mxCell id="zyd1Yfs6hA4rVxVYhihG-49" style="edgeStyle=orthogonalEdgeStyle;rounded=0;orthogonalLoop=1;jettySize=auto;html=1;exitX=0.5;exitY=1;exitDx=0;exitDy=0;strokeWidth=2;" edge="1" parent="1" source="zyd1Yfs6hA4rVxVYhihG-10" target="zyd1Yfs6hA4rVxVYhihG-12">
          <mxGeometry relative="1" as="geometry" />
        </mxCell>
        <mxCell id="zyd1Yfs6hA4rVxVYhihG-10" value="" style="rounded=1;whiteSpace=wrap;html=1;strokeWidth=2;" vertex="1" parent="1">
          <mxGeometry x="526" y="264" width="92" height="71" as="geometry" />
        </mxCell>
        <mxCell id="zyd1Yfs6hA4rVxVYhihG-2" value="&lt;font style=&quot;font-size: 16px;&quot;&gt;文档&lt;/font&gt;" style="text;html=1;align=center;verticalAlign=middle;whiteSpace=wrap;rounded=0;" vertex="1" parent="1">
          <mxGeometry x="109" y="99" width="60" height="30" as="geometry" />
        </mxCell>
        <mxCell id="zyd1Yfs6hA4rVxVYhihG-43" style="edgeStyle=orthogonalEdgeStyle;rounded=0;orthogonalLoop=1;jettySize=auto;html=1;exitX=1;exitY=0.5;exitDx=0;exitDy=0;strokeWidth=2;" edge="1" parent="1" source="zyd1Yfs6hA4rVxVYhihG-3">
          <mxGeometry relative="1" as="geometry">
            <mxPoint x="335" y="173" as="targetPoint" />
          </mxGeometry>
        </mxCell>
        <mxCell id="zyd1Yfs6hA4rVxVYhihG-3" value="" style="shape=image;verticalLabelPosition=bottom;labelBackgroundColor=default;verticalAlign=top;aspect=fixed;imageAspect=0;image=data:image/png,iVBORw0KGgoAAAANSUhEUgAAAMgAAADICAYAAACtWK6eAAAAAXNSR0IArs4c6QAAAERlWElmTU0AKgAAAAgAAYdpAAQAAAABAAAAGgAAAAAAA6ABAAMAAAABAAEAAKACAAQAAAABAAAAyKADAAQAAAABAAAAyAAAAACbWz2VAAAIv0lEQVR4Ae2dsW4bRxCG72g/ggwIegO5UqHaljtXbtLZCJAyjeDeRiAZgdI7blIGCJQujSp1UVyrUCW9gSBAeQWT0TJgYATHBbm3O9x/5yMQJOFxd2a/2Y93POzquo4XBCAAAQhAAAIQgEBmAn3m/qS6+/HTbwePukdHIenZbHYglbzTZPu+v5hNZ3+F4b9/++a4NAaXgizEQIrS06tw/7PuQ2lJ3AkS5JjMJn8WLh3dGxEIZ5R3h69flAo3KdVxrf0uLqlqzY+81iMQrgLCl956rVb/tCtBAkguq1afHCqfLPml50qQyXRyoFJ08lydQMkvvcerp9HuJ/f3nnY721vtDrCRkd3e/d1dXl2bjsaVIP2kf/7wbTMIeGf7yeD7vOmbgKtLLN+lZvQpBBAkhRpt3BBAEDelZqApBBAkhRpt3BBAEDelZqApBBAkhRpt3BBAEDelZqApBBAkhRpt3BBAEDelZqApBBAkhRpt3BCQXmqSa5nz7d19d3vHWqxSs155GY+cID99+n2+2Wm+gnN4WdXSOs+64QZBkLPz+6XtOJCHQFgUur+3m6czo15kBFnsBFy22NCIF2FGEAgrccM/SqLI/AZhm+yImVlZ0yBJOGsrvCQEOfl4eqwAkxxXJ3B5dbP6hzf4SQlBur472iAjQhcgwBkkE9Rcd6oypUM3GQkoSFL9j/T5PvKBP04Ubh2+evksY7noqhSBX379o1TXxfvVuMQqjoEAEBgmgCDDXHgXAnMCCMJEgECEAIJE4HAIAgjCHIBAhACCROBwCAIIwhyAQIQAgkTgcAgCCMIcgECEAIJE4HAIAgjCHIBAhIDpWqz5pqc1n9ER+4vsKkumI/yrPhQeCaG8XTYH3OKCBCnCE4D+2yI7sPAwNpBlOwjDSlCF1aCxsakcU9oBmJtpUUHmG51m3dGyveC5B0N/ZQgsHlqjtp88B42yv0HY6JSjRlX08e9+co1dgDmBFROEbbI5y1RHX0p7yXMRKyYI22RzlYh+Nkmg6G+QoYF5vysyxKTG95bdAAkP0vRUwyKCzPeRD/+NNrbJ1mjDQE5n55+5S/jApdwl1gB03oKAGgEEUasY+ZoSQBBT3ARTI4AgahUjX1MCCGKKm2BqBBBErWLka0oAQUxxE0yNAIKoVYx8TQkgiClugqkRQBC1ipGvKQEEMcVNMDUCCKJWMfI1JYAgprgJpkYAQdQqRr6mBBDEFDfB1AggiFrFyNeUAIKY4iaYGgEEUasY+ZoSQBBT3ARTI4AgahUjX1MCCGKKm2BqBBBErWLka0oAQUxxE0yNAIKoVYx8TQkgiClugqkRQBC1ipGvKQEEMcVNMDUCCKJWMfI1JYAgprgJpkYAQdQqRr6mBBDEFDfB1AggiFrFyNeUAIKY4iaYGgEEUasY+ZoSQBBT3ARTI4AgahUjX1MCCGKKm2BqBBBErWLka0oAQUxxE0yNAIKoVYx8TQkgiClugqkRQBC1ipGvKQEEMcVNMDUCCKJWMfI1JYAgprgJpkYAQdQqRr6mBBDEFDfB1AggiFrFyNeUwGPTaEbBbu/ujSJtJszO9pPNBHYYtUlBzs4/N13KVy+fdUhiU2IusWw4E0WUAIKIFo60bQggiA1noogSQBDRwpG2DQEEseFMFFECTd7F+v67b0TLQdq1EeAMUltFyKcqAghSVTlIpjYCCFJbRcinKgIIUlU5SKY2AghSW0XIpyoCCFJVOUimNgIIUltFyKcqAghSVTlIpjYCCFJbRcinKgIIUlU5SKY2AghSW0XIpyoCTa7Fury6qQpy7mR2trfYUZgb6pL+GhXkeslw23g7bLnlZUOASywbzkQRJYAgooUjbRsCCGLDmSiiBBBEtHCkbUOgyR/p/M0om8njIUqTgnCXx8PUtRkjl1g2nIkiSgBBRAtH2jYEEMSGM1FECSCIaOFI24YAgthwJoooAQQRLRxp2xBAEBvORBElgCCihSNtGwIIYsOZKKIEEES0cKRtQwBBbDgTRZRAk2uxWn+I5/7eLltujYRrUpDWHwPddbtG04MwXGIxByAQIYAgETgcggCCMAcgECGAIBE4HIJAkz/S9/eeNl1ZthTblbdRQbjLYzeF2o7EJVbb9WV0IwkgyEiANG+bAIK0XV9GN5IAgowESPO2CSBI2/VldCMJIMhIgDRvmwCCtF1fRjeSAIKMBEjztgkgSNv1ZXQjCSDISIA0b5sAgrRdX0Y3kkCTa7FGMqG5EQGFrdGcQYwmA2E0CSCIZt3I+msCs+7D1/+b878RJCdN+toIgfdv3xyXCowgpcjSrw2BgmePMAAEsSkjUTIT6Pv+YtpPX5Q8e4SUuYuVuXB0twaBh2//6WR6sUaL+Ud/OPx27Tbrxlh8HkEWJPi3OYEgh+VkTxkgl1gp1GjjhgCCuCk1A00hgCAp1GjjhgCCuCk1A00hgCAp1GjjhgCCuCk1A00hgCAp1GjjhgCCuCk1A00hgCAp1GjjhgCCuCk1A00hwFKTFGqO24TnP97ebbkhgCBuSp1noEGQs/P7PJ0J9MIllkCRWk2x9oWKgTuCtDr7ah9X4Y1OuYaPILlI0s9aBEpvdFormciHESQCh0NlCISdgGV6zt8rP9LzM6XHAQJhi2x4+93haxk5Qr4IEijwWp3Aw28Hlcuj1Qe1/JNcYi1nwxEIcBeLOQCBGAHOIDE6HHNPAEHcTwEAxAggSIwOx9wTQBD3UwAAMQIIEqPDMfcEEMT9FABAjACCxOhwzD0BBHE/BQAQI4AgMTocc0/AfC3W5dWNe+gKAMLOQV6FFiuGnWInP58O8r28uh58nzchUCOBYpdYi+XNNQ6anNIJpDzwJj3a5lsWE+RL96XYk0c3j81nBuFLT2Efec7qFBMkgOQskrNUm+/L45deMUFCOee7x0Q2529++tWbQfiiC9tkvZ09QkV6i7KcfDw9ngeb9M8t4hEjH4Fw1vAoRj6C9AQBCEAAAhCAAAQg8D8C/wCuYRr0N+4N1AAAAABJRU5ErkJggg==;" vertex="1" parent="1">
          <mxGeometry x="106.75" y="141" width="64.5" height="64.5" as="geometry" />
        </mxCell>
        <mxCell id="zyd1Yfs6hA4rVxVYhihG-4" value="" style="shape=image;verticalLabelPosition=bottom;labelBackgroundColor=default;verticalAlign=top;aspect=fixed;imageAspect=0;image=data:image/png,iVBORw0KGgoAAAANSUhEUgAAAMgAAADICAYAAACtWK6eAAAAAXNSR0IArs4c6QAAAERlWElmTU0AKgAAAAgAAYdpAAQAAAABAAAAGgAAAAAAA6ABAAMAAAABAAEAAKACAAQAAAABAAAAyKADAAQAAAABAAAAyAAAAACbWz2VAAAKT0lEQVR4Ae2dC27cNhCG7aYHKXyRpYEcpDfJ+iTtQQKYexEjN2lnEsqQN4lWWpEUyf8jIOhFkTPf8BepXT0eHkgQgAAEIAABCEAAAhCAAAQgAAEIQAACEIAABCAAAQhAAAIQgAAEIAABCEAAAhCAAAQgAAEIQAACEIAABCAAAQhAAAIQgAAEIAABCEAAAhCAAAQgAAEIQAACmwk8bj6i4QM+f/4cGjZPxrSvX7/GUZztTiBJBMECcJoFwddJ7RGIyaTLZJqJ5zwt9zDvQiBJFF8MaOgBKjbeJPDiOXoQS7MCQRQ3G9koGV5aFkqTAjFxvFr0wygtAD9WEWhSKE0JxIRxNpQ+lCLpEmhKKE0IhOGUrhp+43m0Ydfzb/ZV3Xy4QJI4fEhFgsA1gcN7k0/XFtVcT0Oqf2rWSV1dEQhPT0+Pb29v8SirDxMI1xtHhby7eg8VySECQRzdNdKjDT5MJNWvQRDH0W2t6/qf7eI91vTgj5qVpbr4GfcA6INU+Won2FDTl6oCMef4tapmdMesq+oJtto1SBpa/T1mzPCqIoG/av6yVbMHqar8igGjqvoEqrWlKgJJvUd9jNQ4LIFaw/UqArEoVVP8sC0Cx64JBBNJuN6Ye/3P3AVel1eh94ipzst13awfTuBkFoSCVviJNxYs/6G4QMz4Ur3Hi8Op/bt4yWCMWnY6SZZoB6E0s6J/FBYCc/gNbKWDMmr5hdpD0T8Pa12D5Io54shF8oBy0pOD3vPnTCV6pnf7Sgskp/GI4z1s/S4UEEkoSaPYH4WpO81lPOIo2Qoql+23r/uffVZtlvZhZV2szG8l3Cjdg2SxOZ11spRFIW0QyBzTUMqrHgSSe8xaiiXlbieQK7an7VWvO6KkQLIYnflMs44KuWoRiLUqureekgK516b5cXG+wvJYBOzk5/H1qdlUUiAhg9eXDGVQxPgEQikXSwqklM2UOxaBpk+CRQRiP/GGsWKIN6oEighEFSZ+j0cAgYwXUzzKSACBZIRJUeMRQCDjxRSPMhJAIBlhUtR4BGo8MNUstfRrWzADp3/9fZn0g0C02fefYJXvZpAVSKGHd0YSVzBnfHowVl18Ls1tzZ3kBJJ6DX9OJeSGOXB5X4ybMyv69F6L/BSvQRDH/S3x9f5D+zxSSiBpWBX6DFUbVhtDKZFICcSamPcepH0EqryPap+J+Y6WEUjqPfKR0y4pqLgvIxCVgFby81SpnsOrURKITFArtKpQoY4mqlASSBPABzEiDuLHTTeUBNL0gzk3I9VWBhmWSgKJbbUxrOmBgIxAenhBQA8Nxm1UujdLRiCp8b300ggbtlOKoZRAUi8iFeDMQpN7BayUQLyxpOEBItmuHP8Wy3n7YX0fIScQD1cK9LMtRl8n3STgd/E6L7kkd7v7FGELeLRln/x5h7PPSR8IRF9LnD7sUFqRFcg8yKlHmW9iGQLfCUgOsYg9BNYSQCBrSZFPkgACkQw7Tq8lgEDWkiKfJAEEIhl2nF5LAIGsJUU+SQIIRDLsOL2WAAJZS4p8kgQQiGTYcXotAQSylhT5JAkgEMmw4/RaAghkLSnySRJAIJJhx+m1BBDIWlLkkySAQCTDjtNrCUg/D2IPSgUD5dP01kVfJv0gEG128UXl52VkBZKeIuRt766AX6dgm33iC1MOQSWlXsOFEVR8zuAnX5jKALGXIhDH/ZF6vf/QPo+UukhPw6rQZ6jasNoYSolESiDWxLz3IO0jwBem9vFr8+jUe7RpXH9Whf5Mvs9itR7kPkocdU3gdL1h1HUlgcgEtUJjDRXqaKIKJYE0AXwQI+Igftx0Q0kgvLD6ZnNYneH7P+yrc3ecUUkgHYcJ048iICOQ+cuqj4I9Sr1K92bJCCQ1ToZZ+1UqxVBKIKkXkQrwfj18KIEvTH3AMeBKGh4gku2x5QtT25n1eUQSybNZH/v0oLrVfGGqOvKDK0zDrehmpFvggy+T3glEX0qc3jeqLcg+MDUP9Fws8+0sQ0DqIp1wQ2ArAQSylRj5pQggEKlw4+xWAghkKzHySxFAIFLhxtmtBBDIVmLklyKAQKTCjbNbCSCQrcTIL0UAgUiFG2e3EkAgW4mRX4oAApEKN85uJYBAthIjvxQBBCIVbpzdSgCBbCVGfikCCEQq3Di7lYD88yDpYSnnFrbCGz1/evJydDcX/ZMVSBKGv+09LBIS3mmMprfhy72sYQq75BDLAn82AK82BZtItwn4F6bOt7ONl0NOICnQ05lxvIiW88hF4icVqSQlEMSxu237x3POu0vpqAApgVhc6Dn2N07vScL+YvooQUYgSkHto+n1YaWMQCwcoY+QdGGlTE+sJJAuWh5GtkVASSCnttB3bU3o2voNxisJ5LKBC1mXCcTl3ePsVRKITFArNE+Zk42SQCq0G6oYjYCMQNILqvkuyP4WLHVfloxAvF2ku1Pj/jaiW4LaHb5SAknNml7kfn0/339on0fK3e6ehlqP3Je1qcH659fkxOGEFHuQ7y0jDRU86N6j+ET6SCDaqnOR/fya45DrQdzpKaXeJKb187SdOQQmArI9yASAOQSWCCCQJTrskyeAQOSbAACWCCCQJTrskyeAQOSbAACWCBQRSPp1aKle9kGgCwJFBJLRc57hyAiTorYTKCmQuN0cjhAkkOMkWKytlRRIjlj7a2ZCjoIoo1kCTce3dYF4VJsG6AaS7iOQ7oe77+CPR10+ruZbKymQXEbLvEEjX1i7Kan52JYUSMwVpoxnmlwmUc5OAr3E9HGnn4uHG4T/FjNs2yn1JNs2NH3lTuLI1nvY3wrF2nHJHsSjFjOGTvYN4xkZHl5UbnGYQy8lnSotkNzGI5KSraFw2QXEUdjih4diXdNkeeZh1lSszxlyzWk0umzxD2aaT9mGVFbWeyo5vPJKajwwFa2eYFPu5L2JQ482XXIXTnm7CZxSCWF3Sb8vIPcI5aeaavQgDuj1p5rZAIGdBEr3Hm5e6WsQf9VOtHp8IkEgJ4HivYcbW7wHmYgUvBaZqmAuRKBG7+E4i/cgs5hVUfysPhbHJVCtLVXrQTxW1ov4tUjwZRIE7iRQ9R1dNXsQ51FN+XfC57DGCdjQ6rmmiVUFki7YqzpYEyZ1FSdQ/QT7qbhLVxW8vb19e3p6erTN4WoXqxBYInDIH8PVBeIETCQRkSy1BfZdEThEHG7DIQLxihGJUyCtIHCYONy2wwTilSMSp0BaIPBs163/LuwvvsuvBZpI/ATcRBhaMSKaId5z+PzQ1IxAnIKJ5GwzvwGRpEvg0CHVNfamBDIZh1AmElLzqn8AriXbpEAm4xHKRGLoeTTvmhhO/Ypy0wKZDE5C8VWGXxOUvufRzG9WFHO0XQhkbvBMLL75lPaFNGfWFoE4M+diyz6Mmm+b7WYRAhCAAAQgAAEIQAACEIAABCAAAQhAAAIQgAAEIAABCEAAAhCAAAQgAAEIQAACEIAABCAAAQhAAAIQgAAEIAABCEAAAhCAAAQgAAEIQAACEIAABCAAAQhAAAIQgIACgf8B3brhSKbKB4sAAAAASUVORK5CYII=;" vertex="1" parent="1">
          <mxGeometry x="336.75" y="136" width="32.5" height="32.5" as="geometry" />
        </mxCell>
        <mxCell id="zyd1Yfs6hA4rVxVYhihG-5" value="" style="shape=image;verticalLabelPosition=bottom;labelBackgroundColor=default;verticalAlign=top;aspect=fixed;imageAspect=0;image=data:image/png,iVBORw0KGgoAAAANSUhEUgAAAMgAAADICAYAAACtWK6eAAAAAXNSR0IArs4c6QAAAERlWElmTU0AKgAAAAgAAYdpAAQAAAABAAAAGgAAAAAAA6ABAAMAAAABAAEAAKACAAQAAAABAAAAyKADAAQAAAABAAAAyAAAAACbWz2VAAAKT0lEQVR4Ae2dC27cNhCG7aYHKXyRpYEcpDfJ+iTtQQKYexEjN2lnEsqQN4lWWpEUyf8jIOhFkTPf8BepXT0eHkgQgAAEIAABCEAAAhCAAAQgAAEIQAACEIAABCAAAQhAAAIQgAAEIAABCEAAAhCAAAQgAAEIQAACEIAABCAAAQhAAAIQgAAEIAABCEAAAhCAAAQgAAEIQAACmwk8bj6i4QM+f/4cGjZPxrSvX7/GUZztTiBJBMECcJoFwddJ7RGIyaTLZJqJ5zwt9zDvQiBJFF8MaOgBKjbeJPDiOXoQS7MCQRQ3G9koGV5aFkqTAjFxvFr0wygtAD9WEWhSKE0JxIRxNpQ+lCLpEmhKKE0IhOGUrhp+43m0Ydfzb/ZV3Xy4QJI4fEhFgsA1gcN7k0/XFtVcT0Oqf2rWSV1dEQhPT0+Pb29v8SirDxMI1xtHhby7eg8VySECQRzdNdKjDT5MJNWvQRDH0W2t6/qf7eI91vTgj5qVpbr4GfcA6INU+Won2FDTl6oCMef4tapmdMesq+oJtto1SBpa/T1mzPCqIoG/av6yVbMHqar8igGjqvoEqrWlKgJJvUd9jNQ4LIFaw/UqArEoVVP8sC0Cx64JBBNJuN6Ye/3P3AVel1eh94ipzst13awfTuBkFoSCVviJNxYs/6G4QMz4Ur3Hi8Op/bt4yWCMWnY6SZZoB6E0s6J/FBYCc/gNbKWDMmr5hdpD0T8Pa12D5Io54shF8oBy0pOD3vPnTCV6pnf7Sgskp/GI4z1s/S4UEEkoSaPYH4WpO81lPOIo2Qoql+23r/uffVZtlvZhZV2szG8l3Cjdg2SxOZ11spRFIW0QyBzTUMqrHgSSe8xaiiXlbieQK7an7VWvO6KkQLIYnflMs44KuWoRiLUqureekgK516b5cXG+wvJYBOzk5/H1qdlUUiAhg9eXDGVQxPgEQikXSwqklM2UOxaBpk+CRQRiP/GGsWKIN6oEighEFSZ+j0cAgYwXUzzKSACBZIRJUeMRQCDjxRSPMhJAIBlhUtR4BGo8MNUstfRrWzADp3/9fZn0g0C02fefYJXvZpAVSKGHd0YSVzBnfHowVl18Ls1tzZ3kBJJ6DX9OJeSGOXB5X4ybMyv69F6L/BSvQRDH/S3x9f5D+zxSSiBpWBX6DFUbVhtDKZFICcSamPcepH0EqryPap+J+Y6WEUjqPfKR0y4pqLgvIxCVgFby81SpnsOrURKITFArtKpQoY4mqlASSBPABzEiDuLHTTeUBNL0gzk3I9VWBhmWSgKJbbUxrOmBgIxAenhBQA8Nxm1UujdLRiCp8b300ggbtlOKoZRAUi8iFeDMQpN7BayUQLyxpOEBItmuHP8Wy3n7YX0fIScQD1cK9LMtRl8n3STgd/E6L7kkd7v7FGELeLRln/x5h7PPSR8IRF9LnD7sUFqRFcg8yKlHmW9iGQLfCUgOsYg9BNYSQCBrSZFPkgACkQw7Tq8lgEDWkiKfJAEEIhl2nF5LAIGsJUU+SQIIRDLsOL2WAAJZS4p8kgQQiGTYcXotAQSylhT5JAkgEMmw4/RaAghkLSnySRJAIJJhx+m1BBDIWlLkkySAQCTDjtNrCUg/D2IPSgUD5dP01kVfJv0gEG128UXl52VkBZKeIuRt766AX6dgm33iC1MOQSWlXsOFEVR8zuAnX5jKALGXIhDH/ZF6vf/QPo+UukhPw6rQZ6jasNoYSolESiDWxLz3IO0jwBem9vFr8+jUe7RpXH9Whf5Mvs9itR7kPkocdU3gdL1h1HUlgcgEtUJjDRXqaKIKJYE0AXwQI+Igftx0Q0kgvLD6ZnNYneH7P+yrc3ecUUkgHYcJ048iICOQ+cuqj4I9Sr1K92bJCCQ1ToZZ+1UqxVBKIKkXkQrwfj18KIEvTH3AMeBKGh4gku2x5QtT25n1eUQSybNZH/v0oLrVfGGqOvKDK0zDrehmpFvggy+T3glEX0qc3jeqLcg+MDUP9Fws8+0sQ0DqIp1wQ2ArAQSylRj5pQggEKlw4+xWAghkKzHySxFAIFLhxtmtBBDIVmLklyKAQKTCjbNbCSCQrcTIL0UAgUiFG2e3EkAgW4mRX4oAApEKN85uJYBAthIjvxQBBCIVbpzdSgCBbCVGfikCCEQq3Di7lYD88yDpYSnnFrbCGz1/evJydDcX/ZMVSBKGv+09LBIS3mmMprfhy72sYQq75BDLAn82AK82BZtItwn4F6bOt7ONl0NOICnQ05lxvIiW88hF4icVqSQlEMSxu237x3POu0vpqAApgVhc6Dn2N07vScL+YvooQUYgSkHto+n1YaWMQCwcoY+QdGGlTE+sJJAuWh5GtkVASSCnttB3bU3o2voNxisJ5LKBC1mXCcTl3ePsVRKITFArNE+Zk42SQCq0G6oYjYCMQNILqvkuyP4WLHVfloxAvF2ku1Pj/jaiW4LaHb5SAknNml7kfn0/339on0fK3e6ehlqP3Je1qcH659fkxOGEFHuQ7y0jDRU86N6j+ET6SCDaqnOR/fya45DrQdzpKaXeJKb187SdOQQmArI9yASAOQSWCCCQJTrskyeAQOSbAACWCCCQJTrskyeAQOSbAACWCBQRSPp1aKle9kGgCwJFBJLRc57hyAiTorYTKCmQuN0cjhAkkOMkWKytlRRIjlj7a2ZCjoIoo1kCTce3dYF4VJsG6AaS7iOQ7oe77+CPR10+ruZbKymQXEbLvEEjX1i7Kan52JYUSMwVpoxnmlwmUc5OAr3E9HGnn4uHG4T/FjNs2yn1JNs2NH3lTuLI1nvY3wrF2nHJHsSjFjOGTvYN4xkZHl5UbnGYQy8lnSotkNzGI5KSraFw2QXEUdjih4diXdNkeeZh1lSszxlyzWk0umzxD2aaT9mGVFbWeyo5vPJKajwwFa2eYFPu5L2JQ482XXIXTnm7CZxSCWF3Sb8vIPcI5aeaavQgDuj1p5rZAIGdBEr3Hm5e6WsQf9VOtHp8IkEgJ4HivYcbW7wHmYgUvBaZqmAuRKBG7+E4i/cgs5hVUfysPhbHJVCtLVXrQTxW1ov4tUjwZRIE7iRQ9R1dNXsQ51FN+XfC57DGCdjQ6rmmiVUFki7YqzpYEyZ1FSdQ/QT7qbhLVxW8vb19e3p6erTN4WoXqxBYInDIH8PVBeIETCQRkSy1BfZdEThEHG7DIQLxihGJUyCtIHCYONy2wwTilSMSp0BaIPBs163/LuwvvsuvBZpI/ATcRBhaMSKaId5z+PzQ1IxAnIKJ5GwzvwGRpEvg0CHVNfamBDIZh1AmElLzqn8AriXbpEAm4xHKRGLoeTTvmhhO/Ypy0wKZDE5C8VWGXxOUvufRzG9WFHO0XQhkbvBMLL75lPaFNGfWFoE4M+diyz6Mmm+b7WYRAhCAAAQgAAEIQAACEIAABCAAAQhAAAIQgAAEIAABCEAAAhCAAAQgAAEIQAACEIAABCAAAQhAAAIQgAAEIAABCEAAAhCAAAQgAAEIQAACEIAABCAAAQhAAAIQgIACgf8B3brhSKbKB4sAAAAASUVORK5CYII=;" vertex="1" parent="1">
          <mxGeometry x="374.75" y="136" width="32.5" height="32.5" as="geometry" />
        </mxCell>
        <mxCell id="zyd1Yfs6hA4rVxVYhihG-6" value="" style="shape=image;verticalLabelPosition=bottom;labelBackgroundColor=default;verticalAlign=top;aspect=fixed;imageAspect=0;image=data:image/png,iVBORw0KGgoAAAANSUhEUgAAAMgAAADICAYAAACtWK6eAAAAAXNSR0IArs4c6QAAAERlWElmTU0AKgAAAAgAAYdpAAQAAAABAAAAGgAAAAAAA6ABAAMAAAABAAEAAKACAAQAAAABAAAAyKADAAQAAAABAAAAyAAAAACbWz2VAAAKT0lEQVR4Ae2dC27cNhCG7aYHKXyRpYEcpDfJ+iTtQQKYexEjN2lnEsqQN4lWWpEUyf8jIOhFkTPf8BepXT0eHkgQgAAEIAABCEAAAhCAAAQgAAEIQAACEIAABCAAAQhAAAIQgAAEIAABCEAAAhCAAAQgAAEIQAACEIAABCAAAQhAAAIQgAAEIAABCEAAAhCAAAQgAAEIQAACmwk8bj6i4QM+f/4cGjZPxrSvX7/GUZztTiBJBMECcJoFwddJ7RGIyaTLZJqJ5zwt9zDvQiBJFF8MaOgBKjbeJPDiOXoQS7MCQRQ3G9koGV5aFkqTAjFxvFr0wygtAD9WEWhSKE0JxIRxNpQ+lCLpEmhKKE0IhOGUrhp+43m0Ydfzb/ZV3Xy4QJI4fEhFgsA1gcN7k0/XFtVcT0Oqf2rWSV1dEQhPT0+Pb29v8SirDxMI1xtHhby7eg8VySECQRzdNdKjDT5MJNWvQRDH0W2t6/qf7eI91vTgj5qVpbr4GfcA6INU+Won2FDTl6oCMef4tapmdMesq+oJtto1SBpa/T1mzPCqIoG/av6yVbMHqar8igGjqvoEqrWlKgJJvUd9jNQ4LIFaw/UqArEoVVP8sC0Cx64JBBNJuN6Ye/3P3AVel1eh94ipzst13awfTuBkFoSCVviJNxYs/6G4QMz4Ur3Hi8Op/bt4yWCMWnY6SZZoB6E0s6J/FBYCc/gNbKWDMmr5hdpD0T8Pa12D5Io54shF8oBy0pOD3vPnTCV6pnf7Sgskp/GI4z1s/S4UEEkoSaPYH4WpO81lPOIo2Qoql+23r/uffVZtlvZhZV2szG8l3Cjdg2SxOZ11spRFIW0QyBzTUMqrHgSSe8xaiiXlbieQK7an7VWvO6KkQLIYnflMs44KuWoRiLUqureekgK516b5cXG+wvJYBOzk5/H1qdlUUiAhg9eXDGVQxPgEQikXSwqklM2UOxaBpk+CRQRiP/GGsWKIN6oEighEFSZ+j0cAgYwXUzzKSACBZIRJUeMRQCDjxRSPMhJAIBlhUtR4BGo8MNUstfRrWzADp3/9fZn0g0C02fefYJXvZpAVSKGHd0YSVzBnfHowVl18Ls1tzZ3kBJJ6DX9OJeSGOXB5X4ybMyv69F6L/BSvQRDH/S3x9f5D+zxSSiBpWBX6DFUbVhtDKZFICcSamPcepH0EqryPap+J+Y6WEUjqPfKR0y4pqLgvIxCVgFby81SpnsOrURKITFArtKpQoY4mqlASSBPABzEiDuLHTTeUBNL0gzk3I9VWBhmWSgKJbbUxrOmBgIxAenhBQA8Nxm1UujdLRiCp8b300ggbtlOKoZRAUi8iFeDMQpN7BayUQLyxpOEBItmuHP8Wy3n7YX0fIScQD1cK9LMtRl8n3STgd/E6L7kkd7v7FGELeLRln/x5h7PPSR8IRF9LnD7sUFqRFcg8yKlHmW9iGQLfCUgOsYg9BNYSQCBrSZFPkgACkQw7Tq8lgEDWkiKfJAEEIhl2nF5LAIGsJUU+SQIIRDLsOL2WAAJZS4p8kgQQiGTYcXotAQSylhT5JAkgEMmw4/RaAghkLSnySRJAIJJhx+m1BBDIWlLkkySAQCTDjtNrCUg/D2IPSgUD5dP01kVfJv0gEG128UXl52VkBZKeIuRt766AX6dgm33iC1MOQSWlXsOFEVR8zuAnX5jKALGXIhDH/ZF6vf/QPo+UukhPw6rQZ6jasNoYSolESiDWxLz3IO0jwBem9vFr8+jUe7RpXH9Whf5Mvs9itR7kPkocdU3gdL1h1HUlgcgEtUJjDRXqaKIKJYE0AXwQI+Igftx0Q0kgvLD6ZnNYneH7P+yrc3ecUUkgHYcJ048iICOQ+cuqj4I9Sr1K92bJCCQ1ToZZ+1UqxVBKIKkXkQrwfj18KIEvTH3AMeBKGh4gku2x5QtT25n1eUQSybNZH/v0oLrVfGGqOvKDK0zDrehmpFvggy+T3glEX0qc3jeqLcg+MDUP9Fws8+0sQ0DqIp1wQ2ArAQSylRj5pQggEKlw4+xWAghkKzHySxFAIFLhxtmtBBDIVmLklyKAQKTCjbNbCSCQrcTIL0UAgUiFG2e3EkAgW4mRX4oAApEKN85uJYBAthIjvxQBBCIVbpzdSgCBbCVGfikCCEQq3Di7lYD88yDpYSnnFrbCGz1/evJydDcX/ZMVSBKGv+09LBIS3mmMprfhy72sYQq75BDLAn82AK82BZtItwn4F6bOt7ONl0NOICnQ05lxvIiW88hF4icVqSQlEMSxu237x3POu0vpqAApgVhc6Dn2N07vScL+YvooQUYgSkHto+n1YaWMQCwcoY+QdGGlTE+sJJAuWh5GtkVASSCnttB3bU3o2voNxisJ5LKBC1mXCcTl3ePsVRKITFArNE+Zk42SQCq0G6oYjYCMQNILqvkuyP4WLHVfloxAvF2ku1Pj/jaiW4LaHb5SAknNml7kfn0/339on0fK3e6ehlqP3Je1qcH659fkxOGEFHuQ7y0jDRU86N6j+ET6SCDaqnOR/fya45DrQdzpKaXeJKb187SdOQQmArI9yASAOQSWCCCQJTrskyeAQOSbAACWCCCQJTrskyeAQOSbAACWCBQRSPp1aKle9kGgCwJFBJLRc57hyAiTorYTKCmQuN0cjhAkkOMkWKytlRRIjlj7a2ZCjoIoo1kCTce3dYF4VJsG6AaS7iOQ7oe77+CPR10+ruZbKymQXEbLvEEjX1i7Kan52JYUSMwVpoxnmlwmUc5OAr3E9HGnn4uHG4T/FjNs2yn1JNs2NH3lTuLI1nvY3wrF2nHJHsSjFjOGTvYN4xkZHl5UbnGYQy8lnSotkNzGI5KSraFw2QXEUdjih4diXdNkeeZh1lSszxlyzWk0umzxD2aaT9mGVFbWeyo5vPJKajwwFa2eYFPu5L2JQ482XXIXTnm7CZxSCWF3Sb8vIPcI5aeaavQgDuj1p5rZAIGdBEr3Hm5e6WsQf9VOtHp8IkEgJ4HivYcbW7wHmYgUvBaZqmAuRKBG7+E4i/cgs5hVUfysPhbHJVCtLVXrQTxW1ov4tUjwZRIE7iRQ9R1dNXsQ51FN+XfC57DGCdjQ6rmmiVUFki7YqzpYEyZ1FSdQ/QT7qbhLVxW8vb19e3p6erTN4WoXqxBYInDIH8PVBeIETCQRkSy1BfZdEThEHG7DIQLxihGJUyCtIHCYONy2wwTilSMSp0BaIPBs163/LuwvvsuvBZpI/ATcRBhaMSKaId5z+PzQ1IxAnIKJ5GwzvwGRpEvg0CHVNfamBDIZh1AmElLzqn8AriXbpEAm4xHKRGLoeTTvmhhO/Ypy0wKZDE5C8VWGXxOUvufRzG9WFHO0XQhkbvBMLL75lPaFNGfWFoE4M+diyz6Mmm+b7WYRAhCAAAQgAAEIQAACEIAABCAAAQhAAAIQgAAEIAABCEAAAhCAAAQgAAEIQAACEIAABCAAAQhAAAIQgAAEIAABCEAAAhCAAAQgAAEIQAACEIAABCAAAQhAAAIQgIACgf8B3brhSKbKB4sAAAAASUVORK5CYII=;" vertex="1" parent="1">
          <mxGeometry x="336.75" y="174" width="32.5" height="32.5" as="geometry" />
        </mxCell>
        <mxCell id="zyd1Yfs6hA4rVxVYhihG-7" value="" style="shape=image;verticalLabelPosition=bottom;labelBackgroundColor=default;verticalAlign=top;aspect=fixed;imageAspect=0;image=data:image/png,iVBORw0KGgoAAAANSUhEUgAAAMgAAADICAYAAACtWK6eAAAAAXNSR0IArs4c6QAAAERlWElmTU0AKgAAAAgAAYdpAAQAAAABAAAAGgAAAAAAA6ABAAMAAAABAAEAAKACAAQAAAABAAAAyKADAAQAAAABAAAAyAAAAACbWz2VAAAKT0lEQVR4Ae2dC27cNhCG7aYHKXyRpYEcpDfJ+iTtQQKYexEjN2lnEsqQN4lWWpEUyf8jIOhFkTPf8BepXT0eHkgQgAAEIAABCEAAAhCAAAQgAAEIQAACEIAABCAAAQhAAAIQgAAEIAABCEAAAhCAAAQgAAEIQAACEIAABCAAAQhAAAIQgAAEIAABCEAAAhCAAAQgAAEIQAACmwk8bj6i4QM+f/4cGjZPxrSvX7/GUZztTiBJBMECcJoFwddJ7RGIyaTLZJqJ5zwt9zDvQiBJFF8MaOgBKjbeJPDiOXoQS7MCQRQ3G9koGV5aFkqTAjFxvFr0wygtAD9WEWhSKE0JxIRxNpQ+lCLpEmhKKE0IhOGUrhp+43m0Ydfzb/ZV3Xy4QJI4fEhFgsA1gcN7k0/XFtVcT0Oqf2rWSV1dEQhPT0+Pb29v8SirDxMI1xtHhby7eg8VySECQRzdNdKjDT5MJNWvQRDH0W2t6/qf7eI91vTgj5qVpbr4GfcA6INU+Won2FDTl6oCMef4tapmdMesq+oJtto1SBpa/T1mzPCqIoG/av6yVbMHqar8igGjqvoEqrWlKgJJvUd9jNQ4LIFaw/UqArEoVVP8sC0Cx64JBBNJuN6Ye/3P3AVel1eh94ipzst13awfTuBkFoSCVviJNxYs/6G4QMz4Ur3Hi8Op/bt4yWCMWnY6SZZoB6E0s6J/FBYCc/gNbKWDMmr5hdpD0T8Pa12D5Io54shF8oBy0pOD3vPnTCV6pnf7Sgskp/GI4z1s/S4UEEkoSaPYH4WpO81lPOIo2Qoql+23r/uffVZtlvZhZV2szG8l3Cjdg2SxOZ11spRFIW0QyBzTUMqrHgSSe8xaiiXlbieQK7an7VWvO6KkQLIYnflMs44KuWoRiLUqureekgK516b5cXG+wvJYBOzk5/H1qdlUUiAhg9eXDGVQxPgEQikXSwqklM2UOxaBpk+CRQRiP/GGsWKIN6oEighEFSZ+j0cAgYwXUzzKSACBZIRJUeMRQCDjxRSPMhJAIBlhUtR4BGo8MNUstfRrWzADp3/9fZn0g0C02fefYJXvZpAVSKGHd0YSVzBnfHowVl18Ls1tzZ3kBJJ6DX9OJeSGOXB5X4ybMyv69F6L/BSvQRDH/S3x9f5D+zxSSiBpWBX6DFUbVhtDKZFICcSamPcepH0EqryPap+J+Y6WEUjqPfKR0y4pqLgvIxCVgFby81SpnsOrURKITFArtKpQoY4mqlASSBPABzEiDuLHTTeUBNL0gzk3I9VWBhmWSgKJbbUxrOmBgIxAenhBQA8Nxm1UujdLRiCp8b300ggbtlOKoZRAUi8iFeDMQpN7BayUQLyxpOEBItmuHP8Wy3n7YX0fIScQD1cK9LMtRl8n3STgd/E6L7kkd7v7FGELeLRln/x5h7PPSR8IRF9LnD7sUFqRFcg8yKlHmW9iGQLfCUgOsYg9BNYSQCBrSZFPkgACkQw7Tq8lgEDWkiKfJAEEIhl2nF5LAIGsJUU+SQIIRDLsOL2WAAJZS4p8kgQQiGTYcXotAQSylhT5JAkgEMmw4/RaAghkLSnySRJAIJJhx+m1BBDIWlLkkySAQCTDjtNrCUg/D2IPSgUD5dP01kVfJv0gEG128UXl52VkBZKeIuRt766AX6dgm33iC1MOQSWlXsOFEVR8zuAnX5jKALGXIhDH/ZF6vf/QPo+UukhPw6rQZ6jasNoYSolESiDWxLz3IO0jwBem9vFr8+jUe7RpXH9Whf5Mvs9itR7kPkocdU3gdL1h1HUlgcgEtUJjDRXqaKIKJYE0AXwQI+Igftx0Q0kgvLD6ZnNYneH7P+yrc3ecUUkgHYcJ048iICOQ+cuqj4I9Sr1K92bJCCQ1ToZZ+1UqxVBKIKkXkQrwfj18KIEvTH3AMeBKGh4gku2x5QtT25n1eUQSybNZH/v0oLrVfGGqOvKDK0zDrehmpFvggy+T3glEX0qc3jeqLcg+MDUP9Fws8+0sQ0DqIp1wQ2ArAQSylRj5pQggEKlw4+xWAghkKzHySxFAIFLhxtmtBBDIVmLklyKAQKTCjbNbCSCQrcTIL0UAgUiFG2e3EkAgW4mRX4oAApEKN85uJYBAthIjvxQBBCIVbpzdSgCBbCVGfikCCEQq3Di7lYD88yDpYSnnFrbCGz1/evJydDcX/ZMVSBKGv+09LBIS3mmMprfhy72sYQq75BDLAn82AK82BZtItwn4F6bOt7ONl0NOICnQ05lxvIiW88hF4icVqSQlEMSxu237x3POu0vpqAApgVhc6Dn2N07vScL+YvooQUYgSkHto+n1YaWMQCwcoY+QdGGlTE+sJJAuWh5GtkVASSCnttB3bU3o2voNxisJ5LKBC1mXCcTl3ePsVRKITFArNE+Zk42SQCq0G6oYjYCMQNILqvkuyP4WLHVfloxAvF2ku1Pj/jaiW4LaHb5SAknNml7kfn0/339on0fK3e6ehlqP3Je1qcH659fkxOGEFHuQ7y0jDRU86N6j+ET6SCDaqnOR/fya45DrQdzpKaXeJKb187SdOQQmArI9yASAOQSWCCCQJTrskyeAQOSbAACWCCCQJTrskyeAQOSbAACWCBQRSPp1aKle9kGgCwJFBJLRc57hyAiTorYTKCmQuN0cjhAkkOMkWKytlRRIjlj7a2ZCjoIoo1kCTce3dYF4VJsG6AaS7iOQ7oe77+CPR10+ruZbKymQXEbLvEEjX1i7Kan52JYUSMwVpoxnmlwmUc5OAr3E9HGnn4uHG4T/FjNs2yn1JNs2NH3lTuLI1nvY3wrF2nHJHsSjFjOGTvYN4xkZHl5UbnGYQy8lnSotkNzGI5KSraFw2QXEUdjih4diXdNkeeZh1lSszxlyzWk0umzxD2aaT9mGVFbWeyo5vPJKajwwFa2eYFPu5L2JQ482XXIXTnm7CZxSCWF3Sb8vIPcI5aeaavQgDuj1p5rZAIGdBEr3Hm5e6WsQf9VOtHp8IkEgJ4HivYcbW7wHmYgUvBaZqmAuRKBG7+E4i/cgs5hVUfysPhbHJVCtLVXrQTxW1ov4tUjwZRIE7iRQ9R1dNXsQ51FN+XfC57DGCdjQ6rmmiVUFki7YqzpYEyZ1FSdQ/QT7qbhLVxW8vb19e3p6erTN4WoXqxBYInDIH8PVBeIETCQRkSy1BfZdEThEHG7DIQLxihGJUyCtIHCYONy2wwTilSMSp0BaIPBs163/LuwvvsuvBZpI/ATcRBhaMSKaId5z+PzQ1IxAnIKJ5GwzvwGRpEvg0CHVNfamBDIZh1AmElLzqn8AriXbpEAm4xHKRGLoeTTvmhhO/Ypy0wKZDE5C8VWGXxOUvufRzG9WFHO0XQhkbvBMLL75lPaFNGfWFoE4M+diyz6Mmm+b7WYRAhCAAAQgAAEIQAACEIAABCAAAQhAAAIQgAAEIAABCEAAAhCAAAQgAAEIQAACEIAABCAAAQhAAAIQgAAEIAABCEAAAhCAAAQgAAEIQAACEIAABCAAAQhAAAIQgIACgf8B3brhSKbKB4sAAAAASUVORK5CYII=;" vertex="1" parent="1">
          <mxGeometry x="374.75" y="174" width="32.5" height="32.5" as="geometry" />
        </mxCell>
        <mxCell id="zyd1Yfs6hA4rVxVYhihG-8" value="&lt;span style=&quot;font-size: 16px;&quot;&gt;文本块&lt;/span&gt;" style="text;html=1;align=center;verticalAlign=middle;whiteSpace=wrap;rounded=0;" vertex="1" parent="1">
          <mxGeometry x="342" y="99" width="60" height="30" as="geometry" />
        </mxCell>
        <mxCell id="zyd1Yfs6hA4rVxVYhihG-9" value="" style="shape=image;verticalLabelPosition=bottom;labelBackgroundColor=default;verticalAlign=top;aspect=fixed;imageAspect=0;image=data:image/png,iVBORw0KGgoAAAANSUhEUgAAAMgAAADICAYAAACtWK6eAAAAAXNSR0IArs4c6QAAAERlWElmTU0AKgAAAAgAAYdpAAQAAAABAAAAGgAAAAAAA6ABAAMAAAABAAEAAKACAAQAAAABAAAAyKADAAQAAAABAAAAyAAAAACbWz2VAAAPXUlEQVR4Ae2cCZbcOA5E3f3mXgWfrOCTSX0yT4QnZas5mSUS1AIqA+/RWogl8EnW5rK/fZOJgAiIgAiIgAiIgAiIgAiIgAiIgAiIgAiIgAiIgAiIgAiIgAiIgAiIgAiIgAiIgAiIgAiIgAiIgAiIgAiIgAiIgAiIgAiIgAiMROCvkcQepNVe5J1fvNfrNyLwTgfEHuv6iety/3j15WXG7D8PD39cdRGBWxAwdDFh/NxxMJ9jyERgWAIO5XsfjGeHjHU4ZCKQnoBBoWM828hHv2NdDpkIpCTgUHX0IajJTx2GIROBFAQMKiaMms17po9Dk0wELiVgqH7mpm+t5ZfSUfG3JsDN17phr/K3t14pNX86AUfFqzZ7tK6dTkkF35KAo+voJr06jtplInAYAUfmqzd5b307jI4SvzUBR/e9mzNLvL31Sg7W/Ai/i+Vg+rkz1/mRj79jtdw/Xv262OPhA9fl/vGq+zIjw/fuLEogAiBgGHt95J+Qi4M5W80RwLGnFqSTiUAfAW7o3k0ZPRTPlDtecvRqYrxhyEQgTMAR2bsRmeMIcyTt1cZ4mQiECDiiejbghHjDONocBXp0Ml4mAs0EHBHRjcfDcaY5ikW1Ms4wZCLQRCC64c4+HEtTjpvRNC/adR2MgENvZLNddTgWvFHd7NWWJLqKwBaByOHIssl4SCP6fQuK5kWABBxj9A0W0c8YmQhsEohsLt/Meq4D9UT6sHNlqtqIBO6ysSbAb+2FMTIReEnAMdO6qRiT0QyiWnvRAUm4kn8n1HQHSXOgCUMMh0wEnhJo/YhL/8zGzwitPVnmht5R28ifQX4kX7CIPh2QZIua5YDccWPMgbX+CMQo5EACWQ5IpMU5EnRyzAgaT0YyVrksB8QC2OZATPYQyy7w3fRlOSDvxl39DkJAB+TYheK/eZcNTEAHZODFk/TjCeiAHM9YFQYmkOWAzAMz/Eq6fmz7FZ0B5rIckAgqiwQlj5mT63s7eSMfkBEWyxpF6pv6RmBHu498QD6PhtOZ3zvjFZ6AQJYDMoMFR4tZi7N8RWB0AhMa+Nk4LHHTrb3QXyYCLwkYZlo31fQy27UTfqNeriWp6r8JGO5aDwj9GZfNIn14tiak59u3LN+DcC3mx+B9i322OJ/g6yfUUIk3JcDNNfpH34h+xshEYJOAwSO6wRh7tTkERPQzTiYCVQQmeEU2GeOuNEfxiG7GyESgmoDBM7rRrjok3qGZsTIRaCLAjT7KIfEOrexRJgLNBAwR0QPCuAmDOY42R4EenYyXiUCIgCOqZ/MxljmOMEPSXm2Ml4lAF4EJ0XtsRO9S8SfYcJtN0x91uns7AoaO9zggSw5HPuZsNUPAXgdj0cJ8suQE/kquj/Ic45M3O9qMXOt/e8Hn0paaVk7s+Dwj1/cd8ynVmxLgR9ufNx3sTSYC3QR0SLoRKsHdCeiQ3H2F1V83AUcGfbnVjVEJ7kzA0ZwOyZ1XWL11E3Bk0CHpxqgEdyeQ8fuSPTQxh0wEdiHgyJLhswk3tWHQHKNXkw4JScp2I+DI1LspI/HcyIZRmuNFJN86hrllIrArAUe29SY76p6b1zC+Msdkb33WkYnA7gR6N+azeG5WxzCMWnM4PsvV8o51ZSKwK4GWDfjKlxuTwzqVOeJf1ah9Tx0yEdiFgCFL7cZb/BwxjOM4whxJl1rR63SEMOV8PwKOlls3oZ2AKaKr7EOH5ISFunuJyEY8i0lEmw7JWavzJnX4UbbcVFvPZ6LxgL5SP3uUiUCIQLmZtp6v2GyOzrZ0bc1foTu0IArKRWBrY5XzfpF81i21tD5PF2lX2UEJGHS3bjK/sFfWbtVb+uuQXLiAo5WObDi7uMmIZh2Sixdt1PKRzZah14huHZIMKzeYBn65UW6crecsLXpAe9kb+5eJwEsC5YbZes62oRydbWnems/W08vF0sT5BLY2Tznv50vcrEhNpc7W52mzihzejoCh49aN5EkpUVdrL6W/DknSxb1KVmRT2VViK+pG+tEhqQD7ri6RDZWdVaQnHZLsq3qRPn5JUW6OreeLpDaV9UBfZd9kI3tzAuWm2HoeadM41narn635kfq9fCv/53IF1wtY/y/v16v5WoE/pj+/dvty1jDLQ9L7v8ozD80wPnjzMFtuHtf5cV0483l595jS5SwChkI/G4fDfzRzCG7ts/SfAk0bYhjHUeaLPDvyGIbsJAKOOq0LZSdp27uMI2Frr6X/VCHK4EO/MnbvZ0cN2cEEHPlbF+5gSYemj/Rb8pleKDS851zpf/Szo6bsIAKRBT1IymlpHZV6Ny25rc3x0JuzN54aZDsTaF2UcmPsLOe0dI5Krb2X/mRhO+Qp8/Y+OzTJdiLQuhi+U90MadhLa/+j+LM3WScBQ3zrgntnzWzh7KeVwSj+E3ozDFmQgCOudbEtWCtzmENcK4eR/C0z/MzaHOJaFzpzPz3aIixa2V3pz/5kjQQm+LcuWmOJodw9wKOV35X+NtRqJBDbulhTAs1HS3AUaOUykr8dDfCdfxdr+d2goxlfmd8fxT9PEDGvaqzZfjze22p+r1v2Ne+V7M55DM21fuTzOwMpemOvrXxq/CfkNYxaczhy1OSu9aEG2QYBx3wt0MXPNnLebZobaem958o8tgMcR44eHetY5pJ9QcAxtwZWc/9FultO1TDZ8rEDyDhybtWtmT9C2wHtnpeSQJYx4b4G4toHIW9jjk7XvbfeTyeQYo1WXWv/MzSegCFWwhDGQQgcazCRe+Z4F3M0GmG0xDD+LHMUWupGrnaW0Ax12OyEEQG1FcO872I9DP0CSKy5tX6v5t9iXQmoZ1FfwXv2nrXubI7mnvVd846xV5mjcI3GZz52leij6zoKPGv4jHesfUdzNBXhx7irbYKAiHbG3coM3URAHBHjtyIb45ppg1FLZJ3tLusYBRCBVhvjN4HLPmp7Xvtl6t+CPTBuaDOoXy9KtvsJ+qhxZGMPrVw9YcORPhgzrDmUty7cVf7UOqpFmHnCZg2aIr0wbjhzKI40e2UMNY9mDsGtzBiT1SYIa+3HsjbzSpdjorXJLP7UPpI5xLayY0xWMwhr7WfK2swzXR5osBXI0f7sYRTj5mjlkbk3C/RDBkOYQ2XrYmX1Zy8jWCu/ETYTNbb21b1WR/+DKYfCz26V/59gfrz68f9Tv3/69IE5ezLf84q9zI/Rkydb7PofOGXTdms9rSf+K/8JpCxAyxHD8VXuljnqyGwGcS390NcxsptDYGtflrmpSEPPADCPYexhjiTParS+Y56sZhDW2g9jsptB4G368kAzZfMTchxljsRlvdZnO0pcZ17quksvaxS36qt1gUp/X5M56J41yrotz9NBunrTWqAvxmQ3g8CW9aEvY9KZQ1FrI2t/O7GjkbTWYiG/Nc+ae8ZkN4PAml7WPoxJZ2uBrfd2QTes2apz8Z8u0LtVMtIPY7KbQ+DCvfZqvU393ZugiPfiueXxO5znloCdfFmTtSNmCOIY3Wz0Bl7on1+8v+x17cku/fwyxX8KU0Opq+Z5+pMizV2N7rVPxh5KmI4Xa80192WOS58jDbBJxmUxbpQa8KWPZWngoaO1D/pnt5J5zXN3T3t/iRUR5JGgg2Ke/c18TSmrcUrsQ/0cWc0CwqJr+a9Sex6Qz39lrnvYpYm6UlVeM7w4Wu2jNeBg/38C+S0Qc1ZIZm1VDNhAzae80qcq+clOd+gl0sN0MueWcuW+qXkmgzTmUFIjeu3DmKw2Qdhaa829JWumRnPpk60HInWMUmfNM2PTmENJjei1D2OymkHYWmvN/ZSsGeqp0b32ydYDka711d47AzNZrfC1Xyb9z7SstdbcT8+SXPjOULtGd+njF2ouS1NLqa/mmXGprEb02mdKpf65GGpca665f57purc1mp/52HWSf1emhmfaat79TtJ7s8dPsdhIq0V+ytJaQ/6xn8iR25QAXlRDtp+M/vr5ec2pXvt4ggXYkmBwWGuuud/KefZ8pIelz+lssat6rL3oaL2u0uS4tUAzjMluBoGti8OYbNaz2fyCZkbTu4nI4HGHjVQ2epe+In2U68kcR5uhQM/hoObdbY/vQXYXpYS7EpiRrffrcm5cxzjKDIlZg9eo9fYYrbsZZ/Dg6W0ZjMluBoEtPdGXMVltgrDWfkp/Rw6OvcyQaA9dzJHWDMpKkFvPjMluDoFbfZTzmXuyQD9lf8uzIxdH1AyBE8aSr/fKfGnNoKy1QU/bzR9h1Nja15/onHeRnrYYMCeHYbwywwTHhLGVr3XekTO9tTZFUNmNGlv7yt4T9TlGa18R/wi/1jrsZQiLwMjeWOtikcEoFlmvVh5H+5/C++8LV9QurL1V2rccnsyP9NsB36F/ftLDKK+onT0cbnsdkMjm+Dy8OxX4isCoh2RGU6ccjq/gtc4ZAiKfUhmX0SK9ZOyjRpPDKdLvFTFTTUNZfSLAuDjZzCGotZehFw79RnpuZdTrT41DGzdJBEK2piM9eLYmAnrYQ6T3M2Is0E+6EDYRgTUl6sSDPViiHnqlOBJE1vGImEx7o5frr/goJC7K1eYQENHPuLuZoyGOCI89YibUNozbmaOjKCC7kEaPbsbe1RyNcUTXtDXutgcDDH9bK5S1v/3Oct4Na641tNxP58m8tBIZOUYLm1pfMuQwjLcwR5e1cJ752YmUWOuZhtp3fqLWLKUMQhxjwqjlVPoxlsMwUttfB6kjkB77gWDvSVARy/yfFX6vXGZMDPcXVq+a6Xhvj9jluqT6wM0/ywOu8+N+uT4e3/NiaJuHpGc44o+yCYl7tDHWjhKnvO9BYI9NyI3oO+Ey5MmmaafWlGZUAtzgew1HLo5WMwTsdTDYC3PJ3oTAUd+DLPgMN0dsqBl5l69veV/a5+OFlRM7PPP7jnmHPEohAr8IOP7kR947DPYiE4HdCTgyjn5A2INMBA4j4Mg86iGhdpkIHE7AUWG0Q0LNMhE4jYCj0iiHhFplInA6AUfFzIdkgj7DkInApQQc1bMdFGqSiUAaAg4lGQ6JPmuk2RIS8oyA4+UVB0UH49lq6F1aAg5lZxwUHYy0W0DCagg4nDj2PCw8FDoYgCCrI3D072LVqdj2Mrhw0D7/d6n6c354/cB1uX+80kUEtgmMckBedWIvJuYX7/VaBERABERABERABERABERABERABERABERABERABERABERABERABERABERABERABERABERABERABERABERABERABERABERABERABETgxgT+C41crMXZE6bpAAAAAElFTkSuQmCC;" vertex="1" parent="1">
          <mxGeometry x="545" y="271.25" width="56.5" height="56.5" as="geometry" />
        </mxCell>
        <mxCell id="zyd1Yfs6hA4rVxVYhihG-11" value="&lt;span style=&quot;font-size: 16px;&quot;&gt;嵌入模型&lt;/span&gt;" style="text;html=1;align=center;verticalAlign=middle;whiteSpace=wrap;rounded=0;" vertex="1" parent="1">
          <mxGeometry x="625.5" y="284.5" width="77" height="30" as="geometry" />
        </mxCell>
        <mxCell id="zyd1Yfs6hA4rVxVYhihG-50" style="edgeStyle=orthogonalEdgeStyle;rounded=0;orthogonalLoop=1;jettySize=auto;html=1;exitX=0.5;exitY=1;exitDx=0;exitDy=0;entryX=0.5;entryY=0;entryDx=0;entryDy=0;strokeWidth=2;" edge="1" parent="1" source="zyd1Yfs6hA4rVxVYhihG-12" target="zyd1Yfs6hA4rVxVYhihG-22">
          <mxGeometry relative="1" as="geometry" />
        </mxCell>
        <mxCell id="zyd1Yfs6hA4rVxVYhihG-12" value="" style="shape=image;verticalLabelPosition=bottom;labelBackgroundColor=default;verticalAlign=top;aspect=fixed;imageAspect=0;image=data:image/png,iVBORw0KGgoAAAANSUhEUgAAAMgAAADICAYAAACtWK6eAAAAAXNSR0IArs4c6QAAAERlWElmTU0AKgAAAAgAAYdpAAQAAAABAAAAGgAAAAAAA6ABAAMAAAABAAEAAKACAAQAAAABAAAAyKADAAQAAAABAAAAyAAAAACbWz2VAAARbElEQVR4Ae2dC3bkKBJF23VqXxm1soxaWeKV5bznElNYJSGBECAUcU4kiE98LoSV9kx3//efiREwAkbACBgBI2AEjIARMAJGwAgYASNgBIyAETACRsAIGAEjYASMgBEwAkbACBgBI2AEjIARMAJGwAgcJfBx1IDtXyUgqzPxCRefttmaBKxA9tOWYCn7j+CZXZk9l3p0gaHPoO/HfRtMWbcUASuQ7yRlemTrC8CPTVPdNm6KzBcRn/3YNGVNKoE7F4hMsJ5T65+nx2Eah0ysaDKP804FImBE5ZuB7Z3FIXlfNHpnEFu5j1wgMiXPN4TvT0PWzAg4PLNg2FJNJgKjFYggr9G/MtW4vL8nJ1rDWc8+RigQAWArivNumRXLeWxPsyywTH1B36bVGChYC9SkUwKCuKwo2v9Q4Bko1KQTAoI4rDDaF8bS21o7uSO3DEOQtRVGn4UxLxa95Q1tlLTArxXGNQpj6ELp7a9YLIwnlO0VxAVBfgb9cDwY3t2V2crH9Dwfny3r6pF//dKuIsoIpqcCIUwWR0/ipmB4+X2fQ2Gfzy1E4JTqhUUk/qGTdogiac2Sh/qCvhsrY6DKpGguK4LIddLWXOmfsZhkEFDsaXGALASqTIpmeFFkSGXerZgLfJvsJFD7oO5WEFvHoFhArV0s9GkSISCYq3Uovigi4dgUCAhUoeRV42zoy2SBgGLs7AOwolgAnzhU45zowyQgoOifVRxWFAHogl2eGfWsc6NtExBQ6BmQrTDqXa+zzpB2by2K7EsXB22atCGgcGvnWZB9SZg8HJM+CCjCsLM9eBavQhBpRw7GYtvPIaAwW6pQ5JwQ+7SqCKsEOOkzPYtqRkDxfPS8+YPwFqLI0mDd4qi/JVni3GljeFFkeKRAuN/kmgQEYR85e+6ljWFFkdkRQDIsmXsl9jpwD7h3WDkCRoalcs/E7C7Mzp0X/J2p3GsyHoHcIuG+5vKjcASSaY//YI3L3Gvb+ibAszWZCOT8tFCjNzwBnnHONwsZjUwOhNEYWD7LBHJ+eMqyqWuOMpnUAtFrpmpRZxAQ7Em9HyyqplLydxBpmok5752A6z3ApfhKFsiS/a0x3Vpg80MRcFfLpnWBXI2XxVuXgNR196+3kgXy+Nd8dMRFZ21yRAL894tdSkoWSGrikrrB1huBKxPgXxxS/0ohV07YYk8mkHo/uL6ptHyDMPFn0+zNeU0CWtNZKV+tC0RKJWJ2jEDvBF4IMOcVqr0nZvEdJsAzzrkb3DOM5BYIIcgwFCyRJQK5xdG8QFp/xfIwWVziH6wdioAOlc2BZHjJj/yk4F454N+29kdAEdLRO9FfVpkRlSgQK5JM+B1uU8R0tDi4fxgpVSCEosNQuV8igpRL3oVhCJaEYkVyzWvB4uDZldRrkliIunSBEDJtyoIvG+qPgCKkkoXhbfWXaWZEvMw+qdKtZsZk284nIHBR+rxDe+dnUMnD62RQhKaVcjE32wQES2qc+XYkF1lRAxaLxAql7YUQuK951m2zLei9JjQrlIIHt9OUYF2LM94ZXv/LWsALC4UHaFKWgMActeXZwv0Y0hKiLxS2OgbOplkIvPdynk1BlHTeC1BfLIxHSyY4uC1Bfr2dIc9yGOkRLgFTGZtCBWryh4CgofZ8bjy7YSQVtL+0hFBbvW8Zhv52IsyVytxr86Y/+s3xjW1jSGryXE9R6LuxMhbGQRXo1UWQAJV5UVvzVcRAUWhqLNw3hKQeBNeHonhIhXf2esbIuKgC7U0EAVEVylipZzNJsc94BOpF0UnZz7VN5WdT79+d6/T4/D7c9EngnUqZx+W+Rv/7b/7vevLj0/Tu/6yD+A1BG449VsaD4a66/M8eaFcRNQ7mBf/vBOX6NVFMpNiytf3w4rkKdEkUg6lntWSn2tiPap7SHCmWf0D5U8jkGgQcwvw1KftDSK8F4uEqOlYonkafrUNYwxWGR93T7yA+pqVWMeiV809+mDQj4OD5E8qWarKDAL97pny/5Pojotic4s/WHufFMxNorig2pp5Drq8i+67yBllKVjHolfNPfpgUJ+Bg8bZviysXiL8JOnXY+r4VywQls3HY93vay75JAQJ8/fb0+hTEoxkxpeYwynqen0DPFIXxVF5nxrNp+2Nzxf4FOYB/wbzb7+LQSp12P9DK1L9r46bEa78lWBypUvKOpvouup4FQgApyj2tROBYoTlxp+TYw1rmSJVJ0VQXhcccFtUDDR2O8DtImE9K32ExNRTBA5XygAo7FxI3xfqJ1vd9O01Zk0Kg5OvL/4RK8c+1fM0rOx2LTLH5lo8sIIp8fZ7/4QIXLACK+/r8206P3TWCiHg/cqTkHU32X9J5boEw6F9Qx87FRTbiX5p3kT2xuci27qbeByIqeUcPhHF8KwuEIHKUe03GJKBIK+dO+D3DUOEl90nltNxvMhYBRTo5dyHcMwwRXvAwsZw+bZiMQUCRRs4dmO8Zgway4OWeJ5f7LMNQuWciJe/CMARLQmFh6TBk7pOIINXS92AYeqXBWJFc62oowuWZldZrUYhEe0aBeNga8WtTbQkI3J959m2zK+j9TEgsFNrXgvGaqWMEBNvPPnOe+zBSAxaB6aTDgLNE+iXws9/QViN7zmZ09myPRqBLArXeIHyLzFW7JGJBGYGAQMsC8QWjiIdqYgS6I9BDgfhCYauTdgfKArongd4KxIrlnvew26xzCiRnT3jxc/sKilQTI1CNQOpl53qKQnMveql9jIEqUBMjcAqB3AJhMAJN3V+qONbsMB6dVNCa3JBAyX9aixdKEhg6rOU/SRiK4uEZDnTad4jrcxYbxyju6zPvQ7Htkbc1e9f8DLINRTbybtQUno3WdLjHFyG8EzQGTRPspPhsuTaWL9L9EsVn7Rj/eD73s3ZOe1jvyvjHrlX1FylcfkB/13dtHo3AXwK9FoiPUNGxQvE0rK1OoPcC8UAUHSsUT8PaagSuUiAeiKLjC8W+fnkq1p5G4GoF4kEoOlRfLOiaGIHyBH6WN1ndosIjVSZ9TC2a4cRdNKMz4parseCf1lL/nHdmjgrj1NSYzlpPPluiWBDzv7X/TvPkucZqD+tdrFp/xZJdUeYtUmyj8mvYLyh/Z3FQEyOwm8AIX7H2JOuwiOpF0KFSnn8a+zQC/xJoXSC8nO7fsE4foU8qRb8+//4Ow8cHVNgxuTeB1gUiwK+TomkqDt6pc5FpwLd8ZAFR5OvTPoYl0LpACNa/RVynlH1cvl0KUxYG52NuYY0NdU6ghwIhIl8kneNaDc8tzCyNLSyzoZ4JtP4rlmcj6Lz8g7VGoBcCvRQIeQhUoSZGoBsCPRUIofCrlr1JurkeFkhvBcITEegbqlATI9CUQI8F4oHwbaL+wVoj0IJAL3/FWsudRfKAfkIVarKfgGIp2W1J7f8LzmsjoNrxbIRTbpqJv09ULRdqt5aYY4xhSuCyYcv74bpaonDk/a61sjOYV8QW54pIz1+x5gk+MUCoOp+w50UCbnH030Fy7UlcT8FcqUA8NysUT2K7ddtLqq54bHjj16uu5IoF4gGGhaJ+0NpvBPi725bI1oKC8zV9FQn7ygXiAbBQwmLx49Yu/58vl7jI0mDhsT0+tLDPw+ZGKJAQgi+UFwY1nLhp3+3Mm9zOFjnbwRn2RysQz4iHMS8Wjt1RXCdJPzbi6O73j414k6f5U/t9AVXESBVob6IIKMYwJ17ZsOn95dhO2eP9rLWMM0VeWLxmi3PdSSzgpUR8EopMluZrjTEOxkBtLYoAYnnnxhez6eck1/iOfYo13s9au8PMtyWviE3OFZGfRawcM6LT9ucxM9m7BTupFB+DQ9//BYh96pXFIXjZSIC5u401Z00P//WK4Fi17wTl+rkoBlJstFjLuBmnV0HfK7qHRLE7llOucdmw631y3Rni7a+1muH0hT1r9jhXRHp4g4SJaPDwDPo9dQXBUL1sxemmhXwj6dS/U7Mn5z1rmjDrrUAIYQ5r6wI2AZfgVBLWnrXUwTBVoDEhaxdbcMJc11+veiwQfwbqO1N79UKZpVP9kRdRNrxynuqgpWTr3LSUozPs9FwgPt85wC3gfp+13wm474+rTyXfIrrq5c9E128PhvhjI4GephXBUD+g3YNFjD2K2xGUYA21hFz+h9mVCiQ8MMWDLxQrlpBMvL+XVYmLzTPaEt1a0Hr+qgXiuREw1YoFEHaI27GGS2RS9nNlq8j2Fmuu/+72KSJ6J+pZSQgMKzQ1njPXvxDPligWxGLY2r9nfstH6F/2GFxYs8fHwrakIfIMYw37nCsiV3+DrEFwmFAo3yy/oPxpdbufWMh5SdzS4MrYc2U8NqyY3Np3y7MQgAmreE+fe1qIwin1Bd0TZ4k19LUligUxX1v7984zlpifcE73Gp3WhXvX+okmF5e/MLpmn3NF5GcRK/lGntjq8rdn79TZTsEzlfKACjsDC3+Cy878eEYU/fqMf+y5mLd8e3hsb3RSVfzmDlvGpoHyAlBTc+R67tsSxYKY7a39KfOMJ+ZrPqcR44K5vfYiZpKmYv44V0RKv0EcopLEyJjMR+KeWssdHFFjIsFk2A+G///v9grHWvdT3iKM9Tkp9zmoF46Lf9hob/32IBuBvjOURWLy520V41eaEbnH/JWc08LBx2LnXLeSC1W7zaheYGQQ41c6EtnwF4slda507K9I7JwrIj+KWPluxH1/3P30xErdvdoWliDgYKTG154aPkrwqGJD4CX1p0u4XqtE2acT5h6ymPfPivq14XceR8ozczpDYjFzrmtRRJcCcb62+wRPor/F7SS32b87zs9t/sx8zhLekbk//8y57iWWgE9kq9XusywbIPONMSnr7bs12fAdi2tp7vXdfPEn2l/yy7GzfRdJRiIJrCW2NK5FormGEea6xMCPnZ3Fln8fx1b7OjtQ2KePtThq+C+SokaSWEtubZy2RhdFgmv5c7yGCJzEYtia0xpBwscrEifnLiOxRLZgL83rZTJPD5S5LeXsx9It5u/YisXH5NsXXEm+u+Sd9Od9z1vOXUpiycyT2/uslyKwL1jmFMt/n5WyqxgTdS2uF+YEWlvoNxZT7XgO+4sltJbonnFFZHI4uj4MKMKI5dxDlIIgvLaMJ3afOHdJiSUVuxh75mhbL0nlb9CMP5br35XW43mvseJcEflRxMp+I7+w1O1fnrRSsPoJJTSdFI2JEbgeAUXIa9Vfepy+qFcQRZCx/K+QQ60YXxFWnLu8KDKIXYYz5giOfqk9iiKoWN49xtwqJp7lGivODSGCLGKJrgEoNU7fOqmgbS2KAGK5tY6vJ/88uzVWnBtKFNmsJVt7nHAZD1WgNUXhLJZvzVh698VzWmPFuSLys4iV40YUJrw+j5s7ZEGwm0oJY3FfI3//uyF89GO+5ZjJQAR6KRCPVKdOeDH9XOtWpgB8y8elOB0nFuQTY7owbkNGIIuAYtd7IH3toLCV8w4Tt1lCnmv3Yw/rXaBq/+8gu4KaFinaD6j902gTEGvqE+i5QDwNRccXivOD1hqBGgR6+x0klrNOk759xhbbnBEoQeAKb5B5nooBqr1VAMHkXAJXeoMskdBgkP0HVKAmRqAIgasXSAhBgwfft69hARTrphMYqUDC7HV6YOv79naZoFizn8CoBRIS0PABfZnUCmYGxh7/JXCHApln7TBA9SLoUClWNH842OdE4I4FMj98hwHqXAQDVC9WPJ7EjVorkPXDdpiirokEE2GfwyymuXzOBzKe3xl7trbwz+Vnyxlxnx3zl30rkHzMLtga9oNh616dwI+rJ2DxG4EzCViBnEnXbF+egBXI5Y/QEjiTgBXImXTN9uUJWIFc/ggtgTMJ2F+xzqSbbtulb7nEjt+VoxyVY2WM5s4IGAEjYASMgBEwAkbACBgBI2AEjIARMAJGwAgYASNgBIyAETACRsAIGAEjYASMgBEwAkbACBgBI1CGwP8Au+Y1lX+U0nYAAAAASUVORK5CYII=;" vertex="1" parent="1">
          <mxGeometry x="536.75" y="401.25" width="69.5" height="69.5" as="geometry" />
        </mxCell>
        <mxCell id="zyd1Yfs6hA4rVxVYhihG-13" value="&lt;span style=&quot;font-size: 16px;&quot;&gt;向量数据库&lt;/span&gt;" style="text;html=1;align=center;verticalAlign=middle;whiteSpace=wrap;rounded=0;" vertex="1" parent="1">
          <mxGeometry x="625.5" y="425" width="92" height="30" as="geometry" />
        </mxCell>
        <mxCell id="zyd1Yfs6hA4rVxVYhihG-15" value="&lt;span style=&quot;font-size: 16px;&quot;&gt;查询&lt;/span&gt;" style="text;html=1;align=center;verticalAlign=middle;whiteSpace=wrap;rounded=0;" vertex="1" parent="1">
          <mxGeometry x="69" y="284.5" width="44" height="30" as="geometry" />
        </mxCell>
        <mxCell id="zyd1Yfs6hA4rVxVYhihG-17" value="&lt;span style=&quot;font-size: 16px;&quot;&gt;回答&lt;/span&gt;" style="text;html=1;align=center;verticalAlign=middle;whiteSpace=wrap;rounded=0;" vertex="1" parent="1">
          <mxGeometry x="125.25" y="843" width="64" height="30" as="geometry" />
        </mxCell>
        <mxCell id="zyd1Yfs6hA4rVxVYhihG-51" style="edgeStyle=orthogonalEdgeStyle;rounded=0;orthogonalLoop=1;jettySize=auto;html=1;exitX=0.5;exitY=1;exitDx=0;exitDy=0;entryX=0.5;entryY=0;entryDx=0;entryDy=0;strokeWidth=2;" edge="1" parent="1" source="zyd1Yfs6hA4rVxVYhihG-22" target="zyd1Yfs6hA4rVxVYhihG-24">
          <mxGeometry relative="1" as="geometry" />
        </mxCell>
        <mxCell id="zyd1Yfs6hA4rVxVYhihG-22" value="" style="rounded=1;whiteSpace=wrap;html=1;strokeWidth=2;" vertex="1" parent="1">
          <mxGeometry x="512" y="603" width="119" height="141" as="geometry" />
        </mxCell>
        <mxCell id="zyd1Yfs6hA4rVxVYhihG-23" value="" style="shape=image;verticalLabelPosition=bottom;labelBackgroundColor=default;verticalAlign=top;aspect=fixed;imageAspect=0;image=data:image/png,iVBORw0KGgoAAAANSUhEUgAAAMgAAADICAYAAACtWK6eAAAAAXNSR0IArs4c6QAAAERlWElmTU0AKgAAAAgAAYdpAAQAAAABAAAAGgAAAAAAA6ABAAMAAAABAAEAAKACAAQAAAABAAAAyKADAAQAAAABAAAAyAAAAACbWz2VAAAVQUlEQVR4Ae1dz48cxRXuNuECFw5wQCZij5hgHIEEOSRx7zk5AFej2EggFOUvQEjszCHyNadwcCSz0XIFcsh5Z5UcsCVIMAomp6wlnCjCkcgBX1C201/P1G5Pb1V1dfWrrlc9r6Td7q6uH6++rm9evfqZZeIEAUFAEBAEBAFBQBAQBAQBQUAQEAQEAUFAEBAEBAFBQBAQBAQBQUAQEAQEAUFAEBAEBAFBQBAQBAQBQUAQEAQEAUFAEAiIQB4wbUnahsCPXi3q10dZkeXlxVNBy8rf5PJscfyqzA+O79XNmer9x3snYZS/XHsjIATpDZlHBJBBEcFW8T2StkYBkRSBhDRWqEwvhSAmZHz9lWYoy506iTEJ4SJzkzQ392YuUTY5jBCE4us3ScGNEJ3ly+d1ECGLFikhiBYWB89YzSYH0fyDVGSRptgafEKQNTgcHkAMNJ+S0xQOZVsLUpFFtEomBFmrFJaHQMQonjt3nGnx/PL+YsPv+GXj5uDT242nLFt8cvK8aL1bC+j1sNlNMCFIV6V54dVZlq0M7q6wlveKCDtvvFKHUs+WKN6vQBJFIpCHhjSbSRQhiKkaDiQGCACNAG0Qkgwm8dv+TdLMrn3Qft3jebOaXkKQdtUY0JQCEcbQEG2RfZ7nv1uSxJ8sm0EUIYiqXZ7ESIkUqqjt6zCyTJsoQhDUFo/mlCIGh+ZTu8IPefYnyzSJstkE6ak1QAZOdsUQInTF9SPK9EjyQBdQk30PrVGW16vybbmUcVb1Pl1/583a4N56/DGXKEmHqX8Mqh+EfPUTevivey7lKbKzF/Ls7q2FS+AUwmyeBumpNUCMndeXXbMpfNBQMkKj9DPop6FNNosgIMdRue9SiaZqY7iU3RamH1HSJ8nmEMTREBdi2Ohx8s6ZKJg9fOP97ZOYad1thg3iSA5lZ2yCjTG0muKHBPaJwyj9VvbEs0V29/PdoXnGiD99DeJIjv1332Yx4h2jEgzN00mbJKpJpq1BHMiBX8J/fPSbTLSGP00ctUmSmmS6BHEgh2pS+VcNiakQmCpJptnEciSHdN+q6k173f7lr+22SULNrekRxIEcYm/QEkKX2lRIMi2CCDl0dTWa3xRIMh0bRMgRjQimjK/8/Kf1wi3LNJUt7lNTpqFBHEbIpVllqsbh/Ts1yZl8m+tGd2fCwzNCDh3TR4QcI3wDSxad+OP74UeOoUufIHXTyowsunLRBSkuLgIgidWpjfasgcZ/mbYN0mF3yEzc8SuULUespdn9459MQVjaI+kSZDltHes5tE7IoYUlqidmK3TM3yqy7184yL66dRhV0Ebm6TaxLCoZTSoZBGx8ZUa3+C7WJq/lu8YoRpq9WB1Nq/LGXgwsJc8eCOQvvmoJzWcdSaIaxLyRG5pW4vgjYDfazd937JKlZ4Mse60KHVBid+hQ4enXaY8wWdueVhNLmlY8a/sAqaxNrZvvR6+fiTaxTn8RaVqdxiQFH+t3W7YWohYjOkOdS2/RHtK0ckaRZUCrFok8DWUyGoTllxehnBCwGuyRu33TIIhoD6eKlmogjItYx0YiFux7EfOeZNZfHt7PvrzzbXYb18Nv18r41NbD2bmth7KXLk5/Z8a1gjs8YFf8RbUSkZtLo5v37HntZm+cbA8Q49of/pl9dPB1RYz72b1vvjv1reGHdwiDKRcgjLglAuj2xaE/p9eO5LsxtzLlT5BlT0ahq0iY/MZBNaPSX9091JJCJzf8hCinkcECKzVXC9/18N//2c5u7L13OuR4Pvx7sV64VOrgAIBW404XKYAftMGHi68Hpfxy8Zg0u/QIbud5vtC/GseXt5Fu6QeH9ojtKMiBMoBg0CjiTiGwc8pnZA/eBLGAwWG27lDN0Szeh5UmEscPAea9WPpJa9bR15EwhvagdOjxurp7hzJJp7TQqwbHtGetqIWL+I8vQZZjHxGhsWdNqT1UTu1uYeUf8qryRHk42kJlWRYx7ZAkm1ixm1dTtRdAEmrNSEDuqHYIX4Lk5UUduByaVxgInKpjSpJocPMlSJkV0VDZ8IyZkSRqPeBJEEv3buzmFbiDaSRTd5xIAjskFt48CWJAg8OouUG0SXpzIkksgJkSRN+9y2FwEB9KdY3G+mhj5suEJMWYZW7mxZQgTRH53T/15GZNMmRAEm2HzRg1gx9BLHu0crA/8FGeWg2ujfGBuOTBgCRRoOBHkCgw9M90E6eqRyRJ0f8L0cTgN5J+lGnB4Gagv1wterraWhA19JO8dXlrFO2kpuf7yAuSoBfvrctP+kQ3xoFMzfloaoRfLTK7Mvu8eG92fmFMINALfutBzlZnamenSYIFNVgvwMU9+siD9doFqlF1TPP48Q8fGaV4kP1ctVjrz59945VfvfDrzv3sJwTyAj+10Azpqj8lmFpkVmb5lQvFr/Lqr/hs8duFeh/6yo8gT5zH1IKtdsFBDm5aBL9uWOAzlCQx5kApktz777JStvHueqYgCaa1gBxIy9EVVbgCRBmLJPxskMRG0DELFhXc18Ugh5IVnQ1oKvnaU0NmIGPmMpprnm7nF7O/zTzj9orGjyAG8S9WKwi5Oh+SoFLGJEcTy6EkuTz/opcWheZQNkZTjp73o5CE35JbwxJbLK/l1sTSfVB8fN2OJipsTYxK63DsKsav+pCK69LJAHwGaA4F4/H1THa0HdJ4F4IcQ01/07ZNOJKiXeqhFbiruTaEgG1Z8Zxn+WJ39vS27h2FH79uXopSMUkjBUK0oVIrC31/5akJ0Jav/VxmZRGyCzgZGySF5lX746X67GNTxSxrmT2Ans8gjhdBLNNMgpReEjUikBpJjAUZ+IIXQQYWRqLTIpAKSdDMoi35SWpCkBMs5E6DQCok0YhO4sWLIIZ5WCQllUS8EdhkkvAiiOETioFuAGZE700lCS+CGHYy4bKScMT6yDIrxiSZhwKMD0GwUUNi87BCfRTO6TImSRDYeIyko3v3qNw3lbC8sWd6Jf4RERg66k4l+u9nPwhWj3mMpFvIwWGjOKoPObV0oE3w155SYysnFkURj7YHa16hHPEJ8uKl/appZXScZ/Eahd6wF32m1Lyc0a3EXM3DmoWEOy5BarvDPMgD7cGlBwu/kurswea2P9jhpE8Fof6Y6tdbJxt+3bk5YIVp/r5zvZrlCTlJUeUTrO2mMjBel7u3G+fQgByxdzFB5XNpEmAG69iHc7rKphZzcSPLEPsFmiPP/jcPOc1d1ds4BOkwyjmQw+cDjrXWw2fdBpfFWari4QqS42zHPi709Pa2LHHWpJ89f70SZKstDJ7RpLr+zpu6V6P5+ZADwmFtNTZCCHWCLSoU1nD7GLmI+yXRRgtUHwLr4kFc4IVNJCCjyYEY1eKo13Znz8xNYUL4j69BOppWsVcO+pKj/XFcVte143Q9Y2nrUActR71lz1CZmvGXRF4eL6F2sFzZeFEO9BxXg3SQA02rKz+Lt7UPFTnwwbFbCMW2OKryQDbbL6wK13WFlgul4brydnkPrQIS4w/3+IOrTpl6zSU+dZhxNciyS7fQFYKD3UHxC90uGz40XLPnqx2m69m2xr0rrul9CA1nyovCvyLIuHV1JfR4mXZoj9ij5ZTag6JChE6De1OrVf5FxY/tlt8ojyPOxdIfaYBSQnvEdptwKE4TYx9Dvxl/5PuDkfM7zm4cgtTa4zjPtRsOTSsIlFiFWcPQ94HCpvHNO5V44xAkM2uP2IOB+FCbWlFSOYy0al7NYhEqPEE6tEesgjfzTaWiNGWmuE+kWbmgKKtvGmEJ0mGYc9AeAE71t/uCmGq8IT1rI5Y5mv2BMoYliAVFDoa5RTx5xQeBRUxRAhOEt+0RE3jJ2w2Byv5YuIUMEyocQRKwPRSkmMqgBvSU3yZcuc3w1WA+1/iN6hWOIMx7rtooJ9Ieb4vt/aymwXsnMELEmL1XqnhhFkwtjXOVx9qVq+2BX1OKRTzNwqISunYAdPWkUcvWlJPpfXTtAVzCECQx7aEqCCo0ZUXs04TpWpVIOR8L5ewjm8KH0xU7ujflCbV4ip4gCWoPBbSqNBQkoW7CYIo6xWRK2FqqnKrcHK+65hVIgZ3csRfvUUvo6kg2+NRap9rlZNZ67f2Ye8c0RbSMfcSekGgSue0/dOJiqJmyGPHvuwKvWTaQA8dXd2mrZpxI9/MmQVbnERqXZ7dlxOKqikQHFEShXw9y9vx+W2A8w/bgsgGDTr6mHyoSJlf7TEEJRQ7Ip1bgYWVgj5Nh66KhTNBCan1Fs7zc7itybCuZ+pJjFW+rupKchkurQSzaI/ZKQQV436uLNonxywy54LqagzFk64txK/yx9rg8+2Kf4GiD+RBNMgpBoDlAkJSdqpDN+UvoGuaw7Y/qAWvKhqYUXALNqbVqUWmPuk56ao61tNTDkIM+aY10bD5dKrFOrlPYfFoZti9dPCkXh7vlIOdDtSjcZPPAZ444lORAeqsj2ha47+uINcglDT2WIkGLgCjYKTEVW6QvmFMLD61J2b0cGR+vphatBrEgsPj0doY/5RRh8MxlVq+SbdOv6Jxw2TAvJZyqni0v3U+rQSybMriAqUbZRcu4oBUmzNCu5DBS0aTqY4vQapA8n2elea/drmLOrn2wFqSpZYQ0a9AEeZgyOXwBo9UgkMLS1esrZDOe0jLSLGuiMvx+Q8jR2w6hHyi8e2uR3f18np29APIVwz/degrKlkFnoBj769j4Pm0IOQDPwWeL3y764BRuuvvNvVl28/08O4NR0arpVf/1Ec0ett0cs4eWtyYENogcJgis/rQ2iC6rj/cWlTf+4Gb1/7oZVt0tx02K2s/jH7SJaBEP4FZRhBzd2IUniE4GaJemq49DUM0x8zLdZhS5H4bAJpLDZ8pJHIK0v21ALdPOSp79zuVIHTfM8PUpAw+C6CRXWgbaxdB1LM0rHXB2v6GaA5MfKd3fD+8v2ukRTFBsJ1lNNykPTnk6ePAliIPwEqQfAkPJEWAlonZTaiyMOsrO7PcrnTk0tEd1nuHMHML8JlwvljlPeRMBAYbkAAraX3Usn8WoNxVMOM/QNy0hiC9yCcVjSg4rgqs15t4Vu5H4oMM+hSANJKd4y5wcCxvmq14nb5JAC/n0XDVlEoI00ZjYPXNyOKGNCr5qbjkTBTZHFS+n2Okkd5IyZiDLkdGpbAIRA74UyKFWD/bBB4upMHW93dMFUihbg4IYSibpxVJIEF9RQdVSWJX0WMtzUyCHwqTvdWiTqW9+QpC+iFnCo2LaFxotN1oI0F16LFVC5FgcC834RghC9HFcdj9RWWEnEvxREyUhcgCKA4UH56sQhODrXN2943XGodqyR20IMUSUxMgxpKijxpVerIFw+5JDZQuSII0hTsgxBD17XNEgdnysb9GsojgdF2kgLR9NwpEckAkO9hgcyoc5XOqIiVU5F/VL5v/4EwQzfV+4pIUx5noQVALVRNIK19NTpeV6XIJKfshevSFsIFMnBUiifkxWZS2qMixUObhe+ROEKXLtLlwKMZcVZ/mrS5GeLQ1qcvTppFjJtVONaexU973XidvKRf1ObBBPRNUvvmf0qNGoyQEbagAeIMosKiCWzIUgFnBMr/BrmaqjJgeRHcaWJEKQVGu6h9whyDFAc7RLsNM+NaodIMZzGgTJ+RtzMT5enzypyYG8CclRF2W1yXSfYgUPmwZBDDAcNPb6NQQJ4t08ZiBIBsSJhiBHiGYmJiBy0yJJE4S4Hjknp/rznSNEDBiCHChOqB8JblpECOJRefuOVXhkQRIlFDkgnBrTIBGUcSJpEKTMtRPbFp+cHKfAGOMoooUlx3KkPETB2us8QuTRJ800CNKnRCOEXZ7q9PAIOfXPAlM6cJCoz7SV/rmFicHJDkljJP1M1Yt1lGHUlY3DGYBXq+kTlK45X8kn3bEWZPnI1icO5YrAPvnqwqZBEJ3klV/zxCpDkGDeSotQtcVDNomCgbABCUsTa8BHxrnjVC6lJlHIk3OxtpwKU4p00iDIcu9ebXljahEIhPb+UEeRxlAZ+san3oJU5e+7RaiKT31NgyDUpSZMD7+muztP1+sd+iaLSraMuzzGuW/8mOHVOezUMoy9KUOX/OkQxDDdJNZoehtYNLdgR7g41dNE2URzyZcyjLLBKNOs0poTpzc4uaSN9MGlJ04AdgT+sJgK60Xao80YgZ9KTxOgo+7J46Y9UMbkCYLBwp3XURQ+bvnr+lBFFj4yhZAE5YTWpJi0SLlZNWVZ02liGUbTKcGQtPojAI3p2rQ0pQ5ycBr7aMqZDkEwWKhxsXuxNCJtnBdI4tMThy5dzuTAh6Q/BjpU9Xji2a3qmKAruuSL589lW4+7Gci6+OI3HIFHH3mw1iQ4nrs6nTW79813xkRXxHhtd/bM/K+Ldw+NARm8qIvDQA43EV64VOoC7r/7tpx2qwMmsl97zciqg0J7qlRkUY3Zp2Wko6u3zIp2adDVK+cVtlGJ/4ymV+ouHRvEgrRMe7eAI68GIZAWQaQna9DHlsj9EUiriWWY9h6yJ0uXthq9v/jcOWna9a9zScVIiyCe25C2K7mq4PhSuuZZO3zXF5298Uo1WPlKVzB5nyACafViAeAXL+3rDHW8UoZ63wqOuEOdkMQZQenFcoaKOGAMYqgizK59UN+KJlGITOOalpEOzPOc3YxPVRVAkpgkVXLIlQ6B9AgCO8Qw9Z0OFv+U5itN4p+CxOSEQHoEAXqxtYiFoNAgokU4VfFhsqRnpKvy4vz0stwxGewqmPbaruDt8ZX2xEjdkl/L+e3oLMD0F3FaBJIy0tMliMK+rqhZoR7rq0sFX4vg+WDpUZP5YUZMkyJIWuMgOsyXv+4L3avgfmjqlWURPB/JIBoCadog0eBqZWzpMBBjvYVVoo9CkKEfztBhIIb6UGB5xBeCBPwOQpKA4I6UtBBkKNCWZlZzztfQbCR+HASEIAFx102EDJidJB0AASEIBahih1CgyDINIUjgzyJ2SGCAAycvBKEAWDfSTpGupBEdASEI1SdoT1+hSlfSiYqAECQw/NKTFRjgwMkLQQIDLD1ZgQEOnLwQhArg9oxgqnQlnagIpD9ZMSp8jcxNO6785faiCsV2FWSjBHKrQUAIogGF1KvSLHnO69w90vJNPLF0Nq/m/iG+unWYnb2A9TXFiajVdPibe7OTZ7kTBASBLMMiLvyJEwQEAUFAEBAEBAFBQBAQBAQBQUAQEAQEAUFAEBAEBAFBQBAQBAQBQUAQEAQEAUFAEBAEBAFBQBAQBAQBQUAQEAQEgez/F4S5qkDsY2kAAAAASUVORK5CYII=;" vertex="1" parent="1">
          <mxGeometry x="539" y="827" width="62" height="62" as="geometry" />
        </mxCell>
        <mxCell id="zyd1Yfs6hA4rVxVYhihG-26" value="&lt;span style=&quot;font-size: 16px;&quot;&gt;提示词模版&lt;/span&gt;" style="text;html=1;align=center;verticalAlign=middle;whiteSpace=wrap;rounded=0;" vertex="1" parent="1">
          <mxGeometry x="631" y="658.5" width="92" height="30" as="geometry" />
        </mxCell>
        <mxCell id="zyd1Yfs6hA4rVxVYhihG-27" value="&lt;span style=&quot;font-size: 16px;&quot;&gt;LLM&lt;/span&gt;" style="text;html=1;align=center;verticalAlign=middle;whiteSpace=wrap;rounded=0;" vertex="1" parent="1">
          <mxGeometry x="615.25" y="839.5" width="92" height="30" as="geometry" />
        </mxCell>
        <mxCell id="zyd1Yfs6hA4rVxVYhihG-28" value="" style="rounded=1;whiteSpace=wrap;html=1;strokeWidth=2;fillColor=#00CC00;dashed=1;" vertex="1" parent="1">
          <mxGeometry x="622" y="517" width="99" height="46" as="geometry" />
        </mxCell>
        <mxCell id="zyd1Yfs6hA4rVxVYhihG-29" value="" style="shape=image;verticalLabelPosition=bottom;labelBackgroundColor=default;verticalAlign=top;aspect=fixed;imageAspect=0;image=data:image/png,iVBORw0KGgoAAAANSUhEUgAAAMgAAADICAYAAACtWK6eAAAAAXNSR0IArs4c6QAAAERlWElmTU0AKgAAAAgAAYdpAAQAAAABAAAAGgAAAAAAA6ABAAMAAAABAAEAAKACAAQAAAABAAAAyKADAAQAAAABAAAAyAAAAACbWz2VAAALkklEQVR4Ae2dW3acOBBA48wsKn+WlzI7yA7c3kGWMDtp+S/LmFlJpsoj4ra7oQV6IKou53SgQS9u6SKgMfnyhQkCEIAABCAAAQhAAAIQgAAEIAABCEAAAhCAAAQgAAEIQAACEIAABCAAAQhAAAIQgAAEIAABCDQk8NCw7KpFf//+PaQCdf6YlnUWLpY9Lz79+PEjegbQYt+HFiRJ8Zx2PLQAYKxMJKkc0CEFuRADKdYHHEnWM5vNMZQgiDEbp7UbkGQtsZn0wwgicpyljWGmnaxeTwBJ1jO7yrG7IIwaVzGpuQJJCmnuKojIcZL2TxfhhbtC9hkCSDIDJmf1boIgR054qqVBko0odxEEOTZGqywbkmzg112QdM2hF+RM/QkgyUrmX1emr5EcOWpQ3FbGOR2gtuV2mKurIBIc5Ni/kyHJihh0EyRdd4QVbSNpOwJIksm2myDSHm7nZgalUzIkyQDdRZA0emQ0hySdCSDJHeBdBJE2MHrcCcSOm5FkAX7z27xp9KgtSJR9epVPtPo3EOmGRpB97DVxC/gG6T9vrKu96rFigSrEU8XyKOqdgI4kSPLO422pxylW+FTn1q8vyLEVXXY+Trc+oWoqSMWLc5Xj9KntfG1DAEkuuDYV5KKekkXkKKG3LS+SJG6tBSm+OGfk2NbDK+RCEoHYWpDSOL2UFkD+IgLuJRldkFgUXjLXIOBakmaCyAV6KI2OnF7F0jLIX4WAW0maCVIhLLFCGRRRj4BLSVoKEgpjo7+UM41FwJ0kLQUZK7T+WhMb7bIrSRCkUS8aoFi9A9jqLqAbSRBkgJ7cqgnpNyQkKQCMIAXwjpAVScqihCBl/A6RG0m2hwlBtrM7VE4k2RYuBNnG7ZC5kGR92BBkPbND50CSdeFDkHW8TKRGkvwwIkg+K1MpkSQvnAiSx8lkKiS5H1YEuc/IdAokWQ4vgizzcbEVSebDjCDzbFxtQZLb4UaQ21xcrkWS67D3eHHcda07rUl/5Riken2Znc5rTVEKevv7ldTJapXbvRxtv3DSeotfuHGj8foU8KFeTudmBJHAnCRg5xT4IPOaU5DCtEM9Sz2HfxSckeS9a7gQRDtt6sDve95uKUjRSLLM9zB8zAuSRg7ttL0nlfLQEyPJ+O/FKupgSQ499dllSiPXLnXXqtS7JOZHkFodZWM5YWO+obJ5lsS6ILuNHlMPl1EESSYY8/Nhr0msCzIfkn5bQr+q2tbkcSRBkLZ9qqT0t99VCgoIBXlns3qTxLogcTbS/Tbs1YbHVrvoSRLrgrTqI9nlSmfaKsjWfFPbwrTQYu5FEuuCtHonVG6f27X+dJs7t62r03mQxLQg6egdV0e+UobUgSqVtqmY59Z30axLYloQ7VISwCeZRV3uPBWNHhXlbn6r27Ik5gVRKZIkRR12hVxR0uoTq6cVeeaS1mhzaH2qpY23KokLQT4FUDtd1HUVpyhl6UfFGPFxbj3V+tVaFIuSPEhQm0wpGCXD+0ulo3CT/etVqHA8S12hYn3TqBSFb6xY7u+iKsT+d1k3FroegFz9wdQN2EdY9SqNDBUbOh20dFSpWGy3os7S7m6SuDnF6ha+yhWlUTRWLvboxakkocdOIEgPyuV1TKdF5SXZKaGLJAhygA6TrhXiAZrau4nNJUGQ3iHdXh+jyG12TSVBkNvQh1ubRhEkuR2ZcHt1+VoEKWfYrQQu2Luh/l0RgvxGcYwFkeRJWhqP0drjtxJBjhlDTrU6xQ1BOoGuWY1ej8jnQcqMNculrGsCCHLN5DBr0ukWo0nDiCFIQ7g9ihZJTlIPkjSCjSCNwPYsViVJp1yIUhk8glQGumdxiFKfPoLUZ7p7iem060kaoiNK3L1BB24Aj7sfOHhLTRdJomzXz9uU/kbjMX0Nac7sDgEEuQPIyuY0qlztTq/Hxq8q/rhC/0YlfFw1xjcEGSMOu7UijTS71a8VJ0nDro2YqZxrkBkwrIaAEkAQ+gEEFgggyAIcNkEAQegDEFgggCALcNgEAQShD0BggQCCLMBhEwQQhD4AgQUC7n4ovPhRanrsYgEPmxKB1zRv9rrSUUm7ESSJcR41EIO3K6T2PQtHV+9MdnGKJUFVMZCjjoUqya90wKlT4sClmBdEAnkS/mHgGBy1ac9HbfiadpsWJB3lXARyTdArpe3yH/NUauvmYkwLIlTCZjJkzCFg/uBjXRDzAczpxS3TWL8WsS5Iy75B2Q4ImBXE+pFtoL4ZBmpL9aaYFWSEv5SrHq0xC4xjNqtOq8wKkvCYDl6dLlBWivUDkXVBeJFaWf+/l9s8X9OCpKNbvBdltm8jIHxP23IeJ5dpQVIYzB/ldupuLriaF0RHEfk8SCdyEdBOsuj/U37qVNeu1bh5mlcDKrd+FfajfIIuMK0iEDW1cHxalevgid0IkoJ7uowXv5Vc0phfFini/FbbW1wJ8jmUngP/mQXfbxMwfw1ye7dZC4E8AgiSx4lUTgkgiNPAs9t5BBAkjxOpnBJAEKeBZ7fzCCBIHidSOSWAIE4Dz27nEUCQPE6kckoAQZwGnt3OI4AgeZxI5ZQAgjgNPLudRwBB8jiRyikBBHEaeHY7jwCC5HEilVMCCOI08Ox2HgEEyeNEKqcEEMRp4NntPAIIkseJVE4JIIjTwLPbeQQQJI8TqZwSQBCngWe38wggSB4nUjklgCBOA89u5xFAkDxOpHJKAEGcBp7dziPg7s2KF68bDXmISJUI6EvAozcabgRJYuj/ehu8BbnS/j6nl3+/iCinSmUOX4yLUywJrAb0LJ8gH6YyAirKqayI4+Q2L0gKJv9fet0+qZLoAcf8ZF4QiSBytOnGQSQJbYoep1TTgng6FdipS5kfRUwLIp3mcaeO46Za66OIdUGCm57KjjYhYFYQ60e2Jr1hW6FhW7Zj5DIriMcftXbqcnGnertUa1aQRM908Lr0kDuVWD8QWRfk9U582VxGIJZlHz+3aUHSIxHmg7hjN3vZse4uVZsWJBE0H8QuPeW6En0mK16vtrXGvCApiEhSt9+6eWDRvCDaL/RUSz4PsogoZaJEyf6kPMuKOU5uN4+7a0hSYE+6zGMoSiFrippK2L3NddnT5EqQy8B6Ogpe7jfL6wi4OMVah4TUEHgngCDvLFiCwBUBBLlCwgoIvBNoKUh8r2bTEo+qb8JGppoEWgpS2s5QWgD5D0Ng2IPhyILorVgkOUwfL2poaZxjUe0LmZsJ4vW++QJrNt0gUOP3qJZ9rZkgN1hsWfW8JRN5DkVg2NMrpdhakFgYKn1zxqmwDLIPSiDFNgzavLdmtRakxrNP+g6moSGOHOBR25ZiWuMMoUYfm8XUWpDZilduODOSrCQ2cPIkx7lSE2Olcm4Wo0+4Np0EhoIIlSpx85h1JV7DFVO5P+hDlE378NEeVtTTLR2Wp2E1tryDMVzvOmCD0mihLde4BV2oOE39oGKRH4vqIYjuRPhYbfE3ha2TCvP/Ev9CoAGBPxqU+aHInz9//vPt2zcdBsOHDXyBQBmBLqfb2nG7THKk/9WlIipxQaD1tccE8eu00GHe/Hyxwz5QxRgEuvWlbiOIcpVR5CyzoMtMENhKoNfooe3rOYJofd3M18qYTBLo2oe6jiAarnTbT0cSJgisJdDlwvyyUc3vYl1Wpsvc1fpMhO+ZBLrLoe3qLohWKpJEbv0qCaZMArvIoW3bRRCtGEmUAlMGgd3k0LbtJohWjiRKgWmBwK5yaLt2FUQbkCR5lcV/5RPkwwSBKAj+ktu5f++NovtdrKUdljtcJ9k+PWe1lJRtdgk8jfQA6lCCTDFHlImEq/nup1O3aA8pyNTQJIp+ZVSZoNiaR9kdFUPnQ05DC3JJLP3AGGTdY1qvy0zHIBAvmvkqy/wdzwUQFiEAAQhAAAIQgAAEIAABCEAAAhCAAAQgAAEIQAACEIAABCAAAQhAAAIQgAAEIAABCFgn8B/rHMrNZeT53AAAAABJRU5ErkJggg==;" vertex="1" parent="1">
          <mxGeometry x="628" y="521" width="34" height="34" as="geometry" />
        </mxCell>
        <mxCell id="zyd1Yfs6hA4rVxVYhihG-30" value="&lt;span style=&quot;font-size: 16px;&quot;&gt;上下文&lt;/span&gt;" style="text;html=1;align=center;verticalAlign=middle;whiteSpace=wrap;rounded=0;" vertex="1" parent="1">
          <mxGeometry x="662" y="525" width="52" height="30" as="geometry" />
        </mxCell>
        <mxCell id="zyd1Yfs6hA4rVxVYhihG-32" value="" style="rounded=1;whiteSpace=wrap;html=1;strokeWidth=2;fillColor=#f5f5f5;fontColor=#333333;strokeColor=#000000;" vertex="1" parent="1">
          <mxGeometry x="525.25" y="662" width="90" height="31" as="geometry" />
        </mxCell>
        <mxCell id="zyd1Yfs6hA4rVxVYhihG-33" value="&lt;span style=&quot;font-size: 16px;&quot;&gt;查询&lt;/span&gt;" style="text;html=1;align=center;verticalAlign=middle;whiteSpace=wrap;rounded=0;" vertex="1" parent="1">
          <mxGeometry x="546.75" y="666" width="45" height="23" as="geometry" />
        </mxCell>
        <mxCell id="zyd1Yfs6hA4rVxVYhihG-34" value="" style="rounded=1;whiteSpace=wrap;html=1;strokeWidth=2;fillColor=#00CC00;" vertex="1" parent="1">
          <mxGeometry x="524.25" y="702" width="91" height="31" as="geometry" />
        </mxCell>
        <mxCell id="zyd1Yfs6hA4rVxVYhihG-35" value="&lt;span style=&quot;font-size: 16px;&quot;&gt;上下文&lt;/span&gt;" style="text;html=1;align=center;verticalAlign=middle;whiteSpace=wrap;rounded=0;" vertex="1" parent="1">
          <mxGeometry x="542" y="706" width="54.5" height="23" as="geometry" />
        </mxCell>
        <mxCell id="zyd1Yfs6hA4rVxVYhihG-37" value="" style="endArrow=none;html=1;rounded=0;strokeWidth=2;" edge="1" parent="1">
          <mxGeometry width="50" height="50" relative="1" as="geometry">
            <mxPoint x="525.5" y="631" as="sourcePoint" />
            <mxPoint x="625.5" y="631" as="targetPoint" />
          </mxGeometry>
        </mxCell>
        <mxCell id="zyd1Yfs6hA4rVxVYhihG-39" value="" style="endArrow=none;html=1;rounded=0;strokeWidth=2;" edge="1" parent="1">
          <mxGeometry width="50" height="50" relative="1" as="geometry">
            <mxPoint x="525.25" y="647" as="sourcePoint" />
            <mxPoint x="574.75" y="647" as="targetPoint" />
          </mxGeometry>
        </mxCell>
        <mxCell id="zyd1Yfs6hA4rVxVYhihG-40" value="" style="endArrow=none;html=1;rounded=0;strokeWidth=2;" edge="1" parent="1">
          <mxGeometry width="50" height="50" relative="1" as="geometry">
            <mxPoint x="525.5" y="618" as="sourcePoint" />
            <mxPoint x="625.5" y="618" as="targetPoint" />
          </mxGeometry>
        </mxCell>
        <mxCell id="zyd1Yfs6hA4rVxVYhihG-44" value="" style="endArrow=classic;html=1;rounded=0;entryX=0.5;entryY=0;entryDx=0;entryDy=0;edgeStyle=orthogonalEdgeStyle;strokeWidth=2;" edge="1" parent="1" target="zyd1Yfs6hA4rVxVYhihG-10">
          <mxGeometry width="50" height="50" relative="1" as="geometry">
            <mxPoint x="410" y="171" as="sourcePoint" />
            <mxPoint x="497" y="134" as="targetPoint" />
          </mxGeometry>
        </mxCell>
        <mxCell id="zyd1Yfs6hA4rVxVYhihG-48" style="edgeStyle=orthogonalEdgeStyle;rounded=0;orthogonalLoop=1;jettySize=auto;html=1;exitX=0;exitY=0.5;exitDx=0;exitDy=0;entryX=0;entryY=0;entryDx=101;entryDy=23;entryPerimeter=0;strokeWidth=2;" edge="1" parent="1" source="zyd1Yfs6hA4rVxVYhihG-24" target="zyd1Yfs6hA4rVxVYhihG-21">
          <mxGeometry relative="1" as="geometry" />
        </mxCell>
        <mxCell id="zyd1Yfs6hA4rVxVYhihG-52" value="" style="endArrow=classic;html=1;rounded=0;edgeStyle=orthogonalEdgeStyle;strokeWidth=2;" edge="1" parent="1">
          <mxGeometry width="50" height="50" relative="1" as="geometry">
            <mxPoint x="330" y="299" as="sourcePoint" />
            <mxPoint x="512" y="672" as="targetPoint" />
            <Array as="points">
              <mxPoint x="330" y="672" />
            </Array>
          </mxGeometry>
        </mxCell>
        <mxCell id="zyd1Yfs6hA4rVxVYhihG-57" value="&lt;b&gt;&lt;font style=&quot;font-size: 24px;&quot;&gt;1. 检索&amp;nbsp;&lt;/font&gt;&lt;/b&gt;" style="text;html=1;align=center;verticalAlign=middle;whiteSpace=wrap;rounded=0;" vertex="1" parent="1">
          <mxGeometry x="813" y="284.5" width="87" height="30" as="geometry" />
        </mxCell>
        <mxCell id="zyd1Yfs6hA4rVxVYhihG-58" value="&lt;b&gt;&lt;font style=&quot;font-size: 24px;&quot;&gt;2. 增强&lt;/font&gt;&lt;/b&gt;" style="text;html=1;align=center;verticalAlign=middle;whiteSpace=wrap;rounded=0;" vertex="1" parent="1">
          <mxGeometry x="813" y="545" width="87" height="30" as="geometry" />
        </mxCell>
        <mxCell id="zyd1Yfs6hA4rVxVYhihG-59" value="&lt;b&gt;&lt;font style=&quot;font-size: 24px;&quot;&gt;3. 生成&lt;/font&gt;&lt;/b&gt;" style="text;html=1;align=center;verticalAlign=middle;whiteSpace=wrap;rounded=0;" vertex="1" parent="1">
          <mxGeometry x="813" y="807" width="87" height="30" as="geometry" />
        </mxCell>
      </root>
    </mxGraphModel>
  </diagram>
</mxfile>
